<svg width="13" height="12" viewBox="0 0 13 12" fill="none" xmlns="http://www.w3.org/2000/svg">
<path d="M6.28975 5.81C6.27475 5.81 6.26475 5.81 6.24975 5.81C6.22475 5.805 6.18975 5.805 6.15975 5.81C4.70975 5.765 3.61475 4.625 3.61475 3.22C3.61475 1.79 4.77975 0.625 6.20975 0.625C7.63975 0.625 8.80475 1.79 8.80475 3.22C8.79975 4.625 7.69975 5.765 6.30475 5.81C6.29975 5.81 6.29475 5.81 6.28975 5.81ZM6.20975 1.375C5.19475 1.375 4.36475 2.205 4.36475 3.22C4.36475 4.22 5.14475 5.025 6.13975 5.06C6.16475 5.055 6.23475 5.055 6.29975 5.06C7.27975 5.015 8.04975 4.21 8.05475 3.22C8.05475 2.205 7.22475 1.375 6.20975 1.375Z" fill="white"/>
<path d="M6.29477 11.275C5.31477 11.275 4.32977 11.025 3.58477 10.525C2.88977 10.065 2.50977 9.435 2.50977 8.75C2.50977 8.065 2.88977 7.43 3.58477 6.965C5.08477 5.97 7.51477 5.97 9.00477 6.965C9.69477 7.425 10.0798 8.055 10.0798 8.74C10.0798 9.425 9.69977 10.06 9.00477 10.525C8.25477 11.025 7.27477 11.275 6.29477 11.275ZM3.99977 7.595C3.51977 7.915 3.25977 8.325 3.25977 8.755C3.25977 9.18 3.52477 9.59 3.99977 9.905C5.24477 10.74 7.34477 10.74 8.58977 9.905C9.06977 9.585 9.32977 9.175 9.32977 8.745C9.32977 8.32 9.06477 7.91 8.58977 7.595C7.34477 6.765 5.24477 6.765 3.99977 7.595Z" fill="white"/>
</svg>
