<svg width="400" height="110" viewBox="0 0 400 110" fill="none" xmlns="http://www.w3.org/2000/svg">
<path d="M84.8269 9.5147V9.52411C84.8269 9.52411 84.8268 9.53355 84.8174 9.53355C84.8174 9.54297 84.808 9.54296 84.808 9.55238C84.4971 10.0424 84.1013 10.5041 83.6396 10.8904H83.6302L83.3851 11.0789L83.3757 11.0977L83.1213 11.2862L78.8433 14.5183L64.6807 25.185L34.2542 48.1109L37.0716 71.0368L37.1564 71.6776C37.1564 71.6776 37.1564 71.6775 37.1564 71.687C37.2601 72.2806 37.4485 72.846 37.7218 73.3642C37.7312 73.3737 37.7312 73.3737 37.7312 73.3831L37.7406 73.3925V73.4019C37.7689 73.4585 37.7972 73.515 37.8349 73.5715C37.8631 73.6187 37.8914 73.6658 37.9197 73.7223C37.9197 73.7223 37.9197 73.7223 37.9291 73.7317V73.7412C37.9385 73.7506 37.9385 73.7506 37.9385 73.76C38.9656 75.3807 40.7748 76.455 42.829 76.455C44.8643 76.455 46.6547 75.409 47.6912 73.8166V73.8071C47.6912 73.7977 47.7289 73.7506 47.7383 73.7317C47.776 73.6752 47.8985 73.4585 47.9362 73.4019L84.139 10.6926L84.3274 10.3722C84.3369 10.3816 84.8551 9.477 84.8269 9.5147Z" fill="url(#paint0_linear_33679_2)"/>
<path d="M6.9372 0.685476H7.31412H79.7197C79.7856 0.685476 80.0495 0.685476 80.106 0.685476C80.1248 0.685476 80.1908 0.694894 80.2002 0.694894H80.2097C82.0943 0.789123 83.9035 1.81622 84.9211 3.56888C85.9482 5.35923 85.9199 7.45111 85.0342 9.14723C85.0342 9.15666 85.0248 9.15666 85.0248 9.16609V9.1755C85.0248 9.18493 85.0248 9.18492 85.0248 9.18492C84.9965 9.24146 84.9682 9.28857 84.94 9.34511C84.9117 9.40165 84.8834 9.4582 84.8457 9.50531C84.8457 9.51473 84.8457 9.51472 84.8363 9.52415C84.8363 9.53357 84.8269 9.53357 84.8175 9.543C84.5065 10.033 84.1107 10.4853 83.649 10.8716H83.6396L83.1308 11.2674L64.6807 25.1662L29.6181 10.278L13.2977 3.35214L8.36007 1.26027L8.04911 1.13777L7.757 1.01527C7.19163 0.807965 6.59798 0.685472 6.01376 0.666626H5.99491H5.98549H5.97607H5.96664C5.90068 0.685472 6.9372 0.685476 6.9372 0.685476Z" fill="url(#paint1_linear_33679_2)"/>
<path d="M37.2507 72.5634L37.0716 72.243L0.868832 9.53361C0.840563 9.47707 0.708645 9.25092 0.680377 9.2038C0.670954 9.18496 0.642691 9.11899 0.642691 9.10957C0.642691 9.10957 0.642682 9.10957 0.633259 9.10957C-0.224225 7.42287 -0.243062 5.34983 0.774611 3.58775C1.80171 1.80682 3.63917 0.779729 5.55201 0.704346C5.56144 0.704346 5.57086 0.704346 5.58028 0.704346H5.58971H5.59913C5.60855 0.704346 5.60856 0.704346 5.60856 0.704346C5.6651 0.704346 5.72163 0.704346 5.77817 0.704346C5.84413 0.704346 5.90067 0.704346 5.97606 0.704346H5.98547H5.99489C6.01374 0.704346 6.01374 0.704346 6.01374 0.704346C6.61681 0.723192 7.20103 0.845699 7.7664 1.053C7.7664 1.053 7.7664 1.053 7.77582 1.053L8.36947 1.29799L29.6275 10.3251L34.273 48.1392L36.4403 65.7412L37.0999 71.0651L37.1376 71.3761V71.3949L37.1753 71.7059C37.2789 72.2995 37.4768 72.8649 37.7501 73.3926C37.7501 73.402 37.7501 73.402 37.7501 73.4114C37.7595 73.4114 37.7595 73.4209 37.7595 73.4209C37.7595 73.4209 37.7595 73.4209 37.7689 73.4209V73.4303C37.7689 73.4586 37.2507 72.5634 37.2507 72.5634Z" fill="url(#paint2_linear_33679_2)"/>
<path d="M119.812 19.5595V66.9284H109.164V19.5595H96.1135V10.0895H132.863V19.5595H119.812Z" fill="#5E2E86"/>
<path d="M159.417 46.4053C157.551 46.4053 155.459 46.2451 154.215 46.0096V66.9378H143.501V13.1708C147.77 11.2768 153.358 10.0895 159.728 10.0895C173.702 10.0895 181.391 17.2697 181.391 28.4076C181.391 38.7445 173.937 46.4053 159.417 46.4053ZM159.888 18.6172C157.711 18.6172 155.534 19.013 154.225 19.4841V37.5572C155.308 37.7928 157.099 37.953 158.879 37.953C166.569 37.953 170.677 34.3158 170.677 28.3228C170.677 21.7739 166.945 18.6172 159.888 18.6172Z" fill="#5E2E86"/>
<path d="M207.36 66.9473C201.876 66.9473 195.469 65.647 192.048 64.0545V13.0012C195.704 11.3239 201.339 10.1084 207.134 10.1084C219.704 10.1084 226.263 15.9789 226.263 24.5066C226.263 31.668 221.231 36.1627 216.887 37.2275V37.3783C221.532 38.5184 228.166 42.6362 228.166 51.4749C228.166 61.0769 220.618 66.9473 207.36 66.9473ZM207.134 15.2816C203.704 15.2816 200.274 15.894 198.295 16.6573V35.3241H206.371C211.629 35.3241 213.843 34.787 216.274 33.0343C218.479 31.4324 219.93 28.3888 219.93 24.9589C219.93 18.9376 215.36 15.2816 207.134 15.2816ZM216.501 42.1086C213.909 40.7328 211.695 40.2051 206.672 40.2051H198.286V60.3984C200.425 61.1617 204.157 61.7741 207.351 61.7741C216.491 61.7741 221.598 58.0427 221.598 51.1828C221.608 47.0556 219.855 43.9272 216.501 42.1086Z" fill="#5E2E86"/>
<path d="M251.328 66.9473C240.048 66.9473 234.413 62.151 234.413 54.3772C234.413 42.6456 247.059 40.893 259.478 40.2051V37.0861C259.478 30.9895 255.445 29.0861 249.726 29.0861C245.919 29.0861 241.198 30.3017 238.522 31.602L236.845 27.1073C239.964 25.6562 245.156 24.2145 250.253 24.2145C259.469 24.2145 265.49 27.8705 265.49 37.6232V64.0639C262.607 65.6469 256.736 66.9473 251.328 66.9473ZM259.478 44.615C250.338 45.1521 240.435 45.6798 240.435 54.217C240.435 59.0132 244.015 62.1416 251.177 62.1416C254.305 62.1416 258.037 61.5291 259.478 60.8507V44.615Z" fill="#5E2E86"/>
<path d="M296.897 66.9473V38.7445C296.897 33.1662 293.542 29.6043 286.918 29.6043C283.337 29.6043 280.133 30.3016 278.155 31.0743V66.9473H271.756V27.2769C275.723 25.5713 280.821 24.3275 286.842 24.3275C297.66 24.3275 303.219 29.4441 303.219 38.198V66.9379H296.897" fill="#5E2E86"/>
<path d="M335.191 66.9472L315.865 45.8399H315.714V66.9472H309.467V10.0989H315.714V44.6903H315.865L335.116 24.3369H342.739L322.8 45.3028L342.739 66.9472H335.191Z" fill="#5E2E86"/>
<path d="M157.956 104.347C157.899 104.62 157.73 104.752 157.438 104.752H155.958C155.732 104.752 155.61 104.62 155.61 104.375L155.204 98.5988H148.703L145.876 104.375C145.829 104.479 145.744 104.573 145.631 104.639C145.518 104.714 145.424 104.752 145.339 104.752H143.85C143.737 104.752 143.643 104.714 143.577 104.63C143.511 104.554 143.482 104.46 143.511 104.347C143.53 104.262 143.548 104.205 143.567 104.177L151.69 87.8379C152.048 87.1312 152.491 86.6317 153.028 86.3491C153.555 86.0664 154.102 85.925 154.658 85.925C155.016 85.925 155.355 85.9816 155.657 86.0852C155.958 86.1983 156.222 86.3962 156.429 86.6789C156.637 86.9616 156.759 87.3385 156.806 87.8096L157.965 104.177C157.975 104.205 157.975 104.262 157.956 104.347ZM155.148 96.6106L154.62 88.3561C154.601 88.0546 154.479 87.9039 154.243 87.9039C153.989 87.9039 153.791 88.0546 153.64 88.3561L149.607 96.6106H155.148Z" fill="#5E2E86"/>
<path d="M176.472 103.923C176.434 104.111 176.378 104.243 176.284 104.328C176.189 104.413 176.039 104.469 175.822 104.516C174.295 104.79 172.722 104.931 171.11 104.931C169.904 104.931 168.943 104.677 168.227 104.177C167.511 103.678 167.058 102.952 166.861 102.01C166.663 101.068 166.7 99.9745 166.974 98.7212L167.351 96.9215C167.558 95.9132 167.859 95.0369 168.246 94.2831C168.632 93.5292 169.103 92.8885 169.659 92.3702C170.215 91.8519 170.875 91.4562 171.619 91.1829C172.364 90.9096 173.202 90.7683 174.116 90.7683C175.162 90.7683 176.123 90.8531 177.009 91.0227L177.998 86.349C178.027 86.217 178.093 86.104 178.196 86.0097C178.309 85.9155 178.432 85.8684 178.573 85.8684H179.845C179.987 85.8684 180.09 85.9155 180.147 86.0003C180.213 86.0945 180.232 86.2076 180.194 86.349L176.472 103.923ZM174.493 102.839L176.613 92.8696C176.218 92.7942 175.794 92.7471 175.332 92.7283C174.87 92.7094 174.333 92.7 173.711 92.7C172.533 92.7 171.619 93.0487 170.969 93.7554C170.319 94.4621 169.848 95.5174 169.556 96.9215L169.179 98.7212C168.868 100.163 168.887 101.237 169.226 101.944C169.565 102.651 170.338 102.999 171.516 102.999C172.232 102.999 173.23 102.943 174.493 102.839Z" fill="#5E2E86"/>
<path d="M184.764 102.999C185.32 102.999 185.876 102.943 186.441 102.839C186.997 102.735 187.553 102.594 188.1 102.415C188.646 102.236 189.089 102.095 189.419 101.972C189.617 101.887 189.758 101.887 189.853 101.953C189.937 102.019 189.966 102.132 189.937 102.293L189.721 103.32C189.683 103.489 189.532 103.64 189.278 103.772C187.657 104.535 186.017 104.922 184.359 104.922C183.313 104.922 182.399 104.733 181.626 104.366C180.854 103.989 180.298 103.357 179.968 102.462C179.638 101.567 179.629 100.38 179.94 98.9003L180.43 96.6294C180.816 94.8107 181.607 93.3785 182.804 92.3325C184.01 91.2866 185.49 90.7589 187.252 90.7589C188.439 90.7589 189.391 90.9945 190.116 91.475C190.842 91.9556 191.322 92.6341 191.549 93.5292C191.775 94.4244 191.765 95.4515 191.52 96.6294L191.228 97.9863C191.153 98.3538 190.955 98.5328 190.644 98.5328H182.229L182.145 98.8909C181.843 100.342 181.909 101.388 182.333 102.029C182.757 102.679 183.567 102.999 184.764 102.999ZM189.231 96.8649L189.278 96.6294C189.476 95.7059 189.513 94.9521 189.391 94.3584C189.268 93.7742 189.004 93.3408 188.571 93.0864C188.147 92.8225 187.563 92.6906 186.818 92.6906C184.576 92.6906 183.172 94.0004 182.616 96.6294L182.569 96.8649H189.231Z" fill="#5E2E86"/>
<path d="M197.919 102.999C198.475 102.999 199.03 102.943 199.596 102.839C200.152 102.735 200.708 102.594 201.254 102.415C201.801 102.236 202.244 102.095 202.573 101.972C202.771 101.887 202.913 101.887 203.007 101.953C203.092 102.019 203.12 102.132 203.092 102.293L202.875 103.32C202.837 103.489 202.687 103.64 202.432 103.772C200.811 104.535 199.172 104.922 197.513 104.922C196.467 104.922 195.553 104.733 194.781 104.366C194.008 103.989 193.452 103.357 193.122 102.462C192.792 101.567 192.783 100.38 193.094 98.9003L193.584 96.6294C193.97 94.8107 194.762 93.3785 195.959 92.3325C197.165 91.2866 198.644 90.7589 200.406 90.7589C201.593 90.7589 202.545 90.9945 203.271 91.475C203.996 91.9556 204.477 92.6341 204.703 93.5292C204.929 94.4244 204.92 95.4515 204.675 96.6294L204.383 97.9863C204.307 98.3538 204.109 98.5328 203.798 98.5328H195.384L195.299 98.8909C194.997 100.342 195.063 101.388 195.487 102.029C195.911 102.679 196.722 102.999 197.919 102.999ZM202.385 96.8649L202.432 96.6294C202.63 95.7059 202.668 94.9521 202.545 94.3584C202.432 93.7742 202.159 93.3408 201.725 93.0864C201.301 92.8225 200.717 92.6906 199.973 92.6906C197.73 92.6906 196.326 94.0004 195.77 96.6294L195.723 96.8649H202.385Z" fill="#5E2E86"/>
<path d="M217.264 98.7778C216.84 100.766 216.058 102.283 214.908 103.338C213.768 104.394 212.288 104.922 210.479 104.922C209.556 104.922 208.595 104.827 207.596 104.648L206.635 109.181C206.606 109.313 206.531 109.426 206.418 109.52C206.305 109.614 206.182 109.661 206.05 109.661H204.778C204.637 109.661 204.543 109.614 204.477 109.529C204.42 109.435 204.401 109.322 204.439 109.181L208.105 91.9085C208.142 91.7389 208.208 91.6069 208.303 91.5316C208.397 91.4468 208.548 91.3808 208.755 91.3337C209.198 91.23 209.697 91.1264 210.263 91.0416C210.828 90.9568 211.374 90.8814 211.912 90.8343C212.449 90.7872 212.976 90.7589 213.485 90.7589C214.701 90.7589 215.671 91.0133 216.378 91.5127C217.094 92.0121 217.546 92.7283 217.744 93.6706C217.942 94.6034 217.914 95.7059 217.65 96.9686L217.264 98.7778ZM215.059 98.7778L215.455 96.9592C215.643 96.0451 215.7 95.2725 215.634 94.6317C215.568 93.991 215.323 93.501 214.917 93.1523C214.512 92.8037 213.9 92.6246 213.099 92.6246C212.081 92.6246 211.082 92.7094 210.121 92.8696L208.001 102.811C208.849 102.98 209.81 103.065 210.884 103.065C212.062 103.065 212.976 102.707 213.636 101.982C214.277 101.275 214.757 100.201 215.059 98.7778Z" fill="#5E2E86"/>
<path d="M224.076 102.999C224.632 102.999 225.188 102.943 225.754 102.839C226.31 102.735 226.866 102.594 227.412 102.415C227.959 102.236 228.402 102.095 228.741 101.972C228.939 101.887 229.08 101.887 229.174 101.953C229.268 102.019 229.287 102.132 229.259 102.293L229.042 103.32C229.005 103.489 228.854 103.64 228.599 103.772C226.979 104.535 225.339 104.922 223.681 104.922C222.635 104.922 221.721 104.733 220.948 104.366C220.175 103.989 219.619 103.357 219.29 102.462C218.96 101.567 218.95 100.38 219.261 98.9003L219.751 96.6294C220.138 94.8107 220.929 93.3785 222.135 92.3325C223.341 91.2866 224.821 90.7589 226.583 90.7589C227.77 90.7589 228.722 90.9945 229.457 91.475C230.183 91.9556 230.663 92.6341 230.88 93.5292C231.106 94.4244 231.097 95.4515 230.852 96.6294L230.559 97.9863C230.484 98.3538 230.286 98.5328 229.975 98.5328H221.561L221.476 98.8909C221.174 100.342 221.24 101.388 221.664 102.029C222.069 102.679 222.889 102.999 224.076 102.999ZM228.552 96.8649L228.599 96.6294C228.797 95.7059 228.835 94.9521 228.713 94.3584C228.599 93.7742 228.326 93.3408 227.902 93.0864C227.478 92.8225 226.894 92.6906 226.15 92.6906C223.907 92.6906 222.503 94.0004 221.947 96.6294L221.9 96.8649H228.552Z" fill="#5E2E86"/>
<path d="M239.728 90.7401C240.387 90.7401 240.953 90.7778 241.405 90.8626C241.575 90.8909 241.678 90.9474 241.716 91.0228C241.754 91.0982 241.754 91.2207 241.726 91.3809L241.528 92.2855C241.49 92.4551 241.424 92.5682 241.349 92.6341C241.273 92.6907 241.141 92.7283 240.953 92.7189C240.387 92.6907 239.841 92.6718 239.313 92.6718C238.267 92.6718 237.24 92.7943 236.251 93.0487L233.867 104.243C233.839 104.375 233.754 104.488 233.631 104.592C233.509 104.695 233.377 104.743 233.254 104.743H232.029C231.907 104.743 231.803 104.695 231.728 104.592C231.652 104.498 231.624 104.375 231.662 104.234L234.234 92.0876C234.3 91.7767 234.498 91.5788 234.819 91.4845C235.836 91.2207 236.731 91.0228 237.513 90.9003C238.296 90.7967 239.031 90.7401 239.728 90.7401Z" fill="#5E2E86"/>
<path d="M247.945 99.673L249.697 91.4468C249.726 91.3055 249.792 91.1924 249.905 91.0888C250.018 90.9945 250.15 90.938 250.3 90.938H251.507C251.648 90.938 251.752 90.9851 251.836 91.0888C251.912 91.183 251.94 91.3055 251.912 91.4468L250.159 99.673C249.895 100.907 249.942 101.774 250.291 102.283C250.64 102.792 251.328 103.046 252.355 103.046C252.741 103.046 253.269 102.999 253.938 102.914C254.607 102.83 255.191 102.717 255.69 102.594L258.074 91.4468C258.103 91.3149 258.169 91.2018 258.282 91.0982C258.395 90.9945 258.527 90.9474 258.677 90.9474H259.902C260.044 90.9474 260.147 90.9945 260.213 91.0982C260.279 91.1924 260.308 91.3149 260.279 91.4562L257.707 103.555C257.641 103.866 257.443 104.064 257.123 104.158C255.002 104.677 253.222 104.931 251.761 104.931C250.527 104.931 249.584 104.724 248.944 104.318C248.303 103.913 247.916 103.32 247.785 102.556C247.643 101.784 247.7 100.832 247.945 99.673Z" fill="#5E2E86"/>
<path d="M272.614 96.0075L270.871 104.243C270.842 104.384 270.758 104.507 270.635 104.601C270.513 104.695 270.381 104.752 270.258 104.752H269.061C268.92 104.752 268.816 104.705 268.732 104.601C268.656 104.507 268.628 104.384 268.666 104.243L270.409 96.0075C270.588 95.1783 270.626 94.5093 270.531 94.0193C270.437 93.5293 270.202 93.1806 269.815 92.9639C269.429 92.7566 268.892 92.6435 268.204 92.6435C267.177 92.6435 266.065 92.7943 264.868 93.0958L262.503 104.243C262.465 104.375 262.39 104.488 262.267 104.592C262.145 104.695 262.013 104.743 261.891 104.743H260.666C260.543 104.743 260.439 104.695 260.364 104.592C260.289 104.498 260.26 104.375 260.298 104.234L262.861 92.1347C262.927 91.8237 263.125 91.6258 263.445 91.5316C265.584 91.0039 267.365 90.7495 268.788 90.7495C269.73 90.7495 270.494 90.8626 271.097 91.0982C271.7 91.3337 272.133 91.673 272.397 92.1158C272.67 92.5587 272.812 93.0958 272.84 93.7272C272.878 94.3679 272.802 95.1311 272.614 96.0075Z" fill="#5E2E86"/>
<path d="M283.931 103.923C283.893 104.111 283.837 104.243 283.742 104.328C283.648 104.413 283.497 104.469 283.271 104.516C281.745 104.79 280.171 104.931 278.56 104.931C277.354 104.931 276.392 104.677 275.676 104.177C274.96 103.678 274.508 102.952 274.31 102.01C274.112 101.068 274.15 99.9745 274.423 98.7212L274.8 96.9215C275.017 95.9132 275.309 95.0369 275.695 94.2831C276.081 93.5292 276.553 92.8885 277.109 92.3702C277.665 91.8519 278.324 91.4562 279.069 91.1829C279.813 90.9096 280.652 90.7683 281.566 90.7683C282.612 90.7683 283.573 90.8531 284.458 91.0227L285.448 86.349C285.476 86.217 285.542 86.104 285.646 86.0097C285.759 85.9155 285.881 85.8684 286.023 85.8684H287.295C287.436 85.8684 287.54 85.9155 287.606 86.0003C287.672 86.0945 287.691 86.2076 287.653 86.349L283.931 103.923ZM281.952 102.839L284.072 92.8696C283.686 92.7942 283.252 92.7471 282.791 92.7283C282.329 92.7094 281.792 92.7 281.17 92.7C279.992 92.7 279.078 93.0487 278.428 93.7554C277.778 94.4621 277.306 95.5174 277.014 96.9215L276.637 98.7212C276.326 100.163 276.345 101.237 276.685 101.944C277.033 102.651 277.796 102.999 278.974 102.999C279.69 102.999 280.689 102.943 281.952 102.839Z" fill="#5E2E86"/>
<path d="M292.213 102.999C292.769 102.999 293.325 102.943 293.891 102.839C294.447 102.735 295.003 102.594 295.549 102.415C296.096 102.236 296.539 102.095 296.878 101.972C297.076 101.887 297.217 101.887 297.311 101.953C297.405 102.019 297.424 102.132 297.396 102.293L297.179 103.32C297.142 103.489 296.991 103.64 296.736 103.772C295.116 104.535 293.476 104.922 291.818 104.922C290.772 104.922 289.858 104.733 289.085 104.366C288.312 103.989 287.756 103.357 287.427 102.462C287.097 101.567 287.087 100.38 287.398 98.9003L287.888 96.6294C288.275 94.8107 289.066 93.3785 290.263 92.3325C291.469 91.2866 292.948 90.7589 294.711 90.7589C295.898 90.7589 296.85 90.9945 297.585 91.475C298.31 91.9556 298.791 92.6341 299.017 93.5292C299.243 94.4244 299.234 95.4515 298.989 96.6294L298.696 97.9863C298.621 98.3538 298.423 98.5328 298.103 98.5328H289.688L289.603 98.8909C289.302 100.342 289.358 101.388 289.792 102.029C290.206 102.679 291.017 102.999 292.213 102.999ZM296.689 96.8649L296.736 96.6294C296.934 95.7059 296.972 94.9521 296.85 94.3584C296.736 93.7742 296.463 93.3408 296.039 93.0864C295.615 92.8225 295.031 92.6906 294.286 92.6906C292.044 92.6906 290.64 94.0004 290.084 96.6294L290.037 96.8649H296.689Z" fill="#5E2E86"/>
<path d="M307.865 90.7401C308.534 90.7401 309.09 90.7778 309.542 90.8626C309.712 90.8909 309.815 90.9474 309.853 91.0228C309.891 91.0982 309.891 91.2207 309.863 91.3809L309.665 92.2855C309.627 92.4551 309.561 92.5682 309.486 92.6341C309.41 92.6907 309.278 92.7283 309.09 92.7189C308.524 92.6907 307.978 92.6718 307.45 92.6718C306.404 92.6718 305.377 92.7943 304.388 93.0487L302.004 104.243C301.966 104.375 301.891 104.488 301.768 104.592C301.646 104.695 301.514 104.743 301.391 104.743H300.166C300.044 104.743 299.94 104.695 299.865 104.592C299.789 104.498 299.761 104.375 299.799 104.234L302.371 92.0876C302.437 91.7767 302.635 91.5788 302.956 91.4845C303.973 91.2207 304.868 91.0228 305.65 90.9003C306.433 90.7967 307.168 90.7401 307.865 90.7401Z" fill="#5E2E86"/>
<path d="M313.019 103.046C314.838 103.046 315.893 102.406 316.157 101.134C316.242 100.738 316.176 100.408 315.978 100.125C315.771 99.852 315.347 99.5222 314.706 99.1453L312.454 97.845C311.71 97.4021 311.182 96.8838 310.871 96.2996C310.56 95.7154 310.494 95.0087 310.664 94.1795C310.852 93.3126 311.229 92.6247 311.785 92.1252C312.341 91.6258 312.991 91.2678 313.745 91.0605C314.499 90.8532 315.309 90.7495 316.185 90.7495C316.864 90.7495 317.523 90.8249 318.174 90.9662C318.824 91.117 319.276 91.2772 319.559 91.4562C319.672 91.5316 319.757 91.5882 319.794 91.6353C319.832 91.6824 319.841 91.7672 319.823 91.8991L319.596 92.9262C319.568 93.077 319.483 93.1806 319.37 93.256C319.257 93.322 319.106 93.3314 318.946 93.2654C318.522 93.0864 318.013 92.9356 317.42 92.8226C316.826 92.7001 316.289 92.6435 315.799 92.6435C315.017 92.6435 314.367 92.7472 313.858 92.9356C313.349 93.1335 313.029 93.5387 312.897 94.1512C312.812 94.5752 312.859 94.9333 313.066 95.2348C313.274 95.5364 313.651 95.8379 314.197 96.1582L316.411 97.4303C317.033 97.7884 317.505 98.1559 317.825 98.5234C318.145 98.8909 318.353 99.2772 318.428 99.673C318.513 100.078 318.494 100.521 318.39 101.02C318.211 101.878 317.844 102.594 317.297 103.178C316.751 103.763 316.072 104.196 315.271 104.479C314.47 104.761 313.585 104.903 312.633 104.903C311.907 104.903 311.21 104.818 310.55 104.648C309.891 104.479 309.382 104.3 309.043 104.102C308.835 103.979 308.741 103.828 308.788 103.649L309.005 102.622C309.033 102.472 309.109 102.368 309.231 102.293C309.354 102.217 309.495 102.217 309.646 102.293C310.777 102.801 311.907 103.046 313.019 103.046Z" fill="#5E2E86"/>
<path d="M327.606 104.375C327.559 104.62 327.38 104.761 327.069 104.799C326.485 104.884 325.929 104.922 325.401 104.922C324.176 104.922 323.347 104.686 322.923 104.224C322.499 103.762 322.433 102.877 322.715 101.558L324.581 92.7943L322.188 92.521C321.877 92.4927 321.754 92.342 321.811 92.0687L321.952 91.3808C322.018 91.0887 322.207 90.938 322.527 90.938H324.967L325.495 88.4691C325.552 88.1959 325.731 88.0263 326.032 87.9697L327.389 87.7719H327.465C327.578 87.7719 327.662 87.8095 327.719 87.8944C327.775 87.9697 327.785 88.0734 327.747 88.1959L327.172 90.938H329.886C330.028 90.938 330.131 90.9851 330.207 91.0887C330.282 91.183 330.31 91.3054 330.273 91.4468L330.084 92.2949C330.056 92.4362 329.98 92.5493 329.858 92.6529C329.735 92.7566 329.604 92.8037 329.481 92.8037H326.777L324.911 101.567C324.76 102.236 324.76 102.669 324.911 102.858C325.062 103.046 325.392 103.15 325.919 103.15H327.333C327.681 103.15 327.832 103.263 327.785 103.508L327.606 104.375Z" fill="#5E2E86"/>
<path d="M339.309 103.791C339.243 104.102 339.083 104.29 338.819 104.347C338.122 104.535 337.434 104.677 336.746 104.78C336.058 104.874 335.295 104.931 334.456 104.931C332.506 104.931 331.168 104.601 330.452 103.942C329.735 103.282 329.538 102.227 329.849 100.785L329.886 100.568C330.094 99.6259 330.452 98.8626 330.979 98.2595C331.507 97.6659 332.242 97.223 333.184 96.9309C334.136 96.6388 335.342 96.4974 336.803 96.4974H338.668L338.876 95.4892C339.102 94.4432 339.064 93.7177 338.753 93.3125C338.442 92.9073 337.783 92.7094 336.793 92.7094C336.03 92.7094 335.37 92.7565 334.805 92.8602C334.24 92.9638 333.58 93.124 332.826 93.3313C332.638 93.3879 332.496 93.3879 332.402 93.3219C332.308 93.256 332.27 93.1523 332.299 93.011L332.506 92.031C332.553 91.8331 332.704 91.6729 332.958 91.5787C333.382 91.4091 333.995 91.23 334.786 91.0416C335.578 90.8625 336.388 90.7683 337.198 90.7683C340.459 90.7683 341.759 92.3419 341.081 95.4892L339.309 103.791ZM337.293 102.971L338.32 98.0899H336.454C335.662 98.0899 335.022 98.137 334.532 98.2218C334.042 98.3066 333.637 98.448 333.307 98.6459C332.986 98.8437 332.732 99.0888 332.543 99.3903C332.355 99.6918 332.214 100.069 332.119 100.53L332.072 100.757C331.95 101.341 331.94 101.812 332.044 102.17C332.148 102.528 332.43 102.783 332.873 102.952C333.316 103.112 333.966 103.197 334.814 103.197C335.154 103.197 335.474 103.188 335.785 103.169C336.096 103.15 336.388 103.122 336.642 103.084C336.916 103.056 337.123 103.018 337.293 102.971Z" fill="#5E2E86"/>
<path d="M354.301 96.0075L352.558 104.243C352.529 104.384 352.445 104.507 352.322 104.601C352.2 104.695 352.068 104.752 351.945 104.752H350.748C350.607 104.752 350.504 104.705 350.419 104.601C350.343 104.507 350.315 104.384 350.353 104.243L352.096 96.0075C352.275 95.1783 352.313 94.5093 352.218 94.0193C352.124 93.5293 351.889 93.1806 351.502 92.9639C351.116 92.7566 350.579 92.6435 349.9 92.6435C348.873 92.6435 347.761 92.7943 346.565 93.0958L344.2 104.243C344.162 104.375 344.087 104.488 343.964 104.592C343.842 104.695 343.71 104.743 343.587 104.743H342.362C342.24 104.743 342.136 104.695 342.061 104.592C341.985 104.498 341.957 104.375 341.995 104.234L344.558 92.1347C344.624 91.8237 344.822 91.6258 345.142 91.5316C347.281 91.0039 349.062 90.7495 350.485 90.7495C351.427 90.7495 352.19 90.8626 352.793 91.0982C353.396 91.3337 353.83 91.673 354.094 92.1158C354.367 92.5587 354.508 93.0958 354.537 93.7272C354.574 94.3679 354.499 95.1311 354.301 96.0075Z" fill="#5E2E86"/>
<path d="M365.627 103.923C365.59 104.111 365.533 104.243 365.439 104.328C365.345 104.413 365.194 104.469 364.968 104.516C363.441 104.79 361.868 104.931 360.256 104.931C359.05 104.931 358.089 104.677 357.373 104.177C356.657 103.678 356.204 102.952 356.007 102.01C355.809 101.068 355.846 99.9745 356.12 98.7212L356.497 96.9215C356.704 95.9132 357.005 95.0369 357.392 94.2831C357.778 93.5292 358.249 92.8885 358.805 92.3702C359.361 91.8519 360.021 91.4562 360.765 91.1829C361.509 90.9096 362.348 90.7683 363.262 90.7683C364.308 90.7683 365.269 90.8531 366.155 91.0227L367.144 86.349C367.173 86.217 367.239 86.104 367.342 86.0097C367.455 85.9155 367.578 85.8684 367.719 85.8684H368.991C369.133 85.8684 369.236 85.9155 369.302 86.0003C369.368 86.0945 369.387 86.2076 369.349 86.349L365.627 103.923ZM363.648 102.839L365.769 92.8696C365.382 92.7942 364.949 92.7471 364.487 92.7283C364.025 92.7094 363.488 92.7 362.866 92.7C361.689 92.7 360.774 93.0487 360.124 93.7554C359.474 94.4621 359.003 95.5174 358.711 96.9215L358.334 98.7212C358.023 100.163 358.042 101.237 358.381 101.944C358.73 102.651 359.493 102.999 360.671 102.999C361.387 102.999 362.386 102.943 363.648 102.839Z" fill="#5E2E86"/>
<path d="M370.763 104.243C370.725 104.394 370.65 104.516 370.537 104.601C370.414 104.695 370.292 104.743 370.15 104.743H368.944C368.822 104.743 368.718 104.695 368.633 104.592C368.548 104.498 368.52 104.375 368.558 104.234L371.281 91.4374C371.309 91.296 371.375 91.183 371.498 91.0793C371.62 90.9851 371.743 90.9285 371.884 90.9285H373.09C373.25 90.9285 373.363 90.9756 373.439 91.0605C373.514 91.1453 373.533 91.2678 373.495 91.428L370.763 104.243ZM374.202 88.2242C374.174 88.3749 374.108 88.488 373.985 88.5823C373.863 88.6765 373.74 88.7236 373.599 88.7236H372.318C372.176 88.7236 372.073 88.6765 371.997 88.5728C371.922 88.4692 371.893 88.3561 371.922 88.2147L372.355 86.2171C372.393 86.0758 372.459 85.9627 372.572 85.859C372.685 85.7648 372.817 85.7083 372.968 85.7083H374.24C374.391 85.7083 374.513 85.7554 374.579 85.8402C374.645 85.9344 374.664 86.0569 374.636 86.2077L374.202 88.2242Z" fill="#5E2E86"/>
<path d="M386.084 96.0075L384.341 104.243C384.304 104.384 384.228 104.507 384.106 104.601C383.974 104.695 383.851 104.752 383.729 104.752H382.523C382.381 104.752 382.278 104.705 382.202 104.601C382.127 104.507 382.099 104.384 382.136 104.243L383.879 96.0075C384.059 95.1783 384.106 94.5093 384.011 94.0193C383.917 93.5293 383.682 93.1806 383.295 92.9639C382.909 92.7566 382.372 92.6435 381.684 92.6435C380.657 92.6435 379.545 92.7943 378.348 93.0958L375.983 104.243C375.955 104.375 375.87 104.488 375.748 104.592C375.625 104.695 375.493 104.743 375.371 104.743H374.146C374.023 104.743 373.919 104.695 373.844 104.592C373.769 104.498 373.74 104.375 373.778 104.234L376.341 92.1347C376.407 91.8237 376.605 91.6258 376.925 91.5316C379.064 91.0039 380.845 90.7495 382.268 90.7495C383.21 90.7495 383.983 90.8626 384.577 91.0982C385.18 91.3337 385.613 91.673 385.887 92.1158C386.16 92.5587 386.301 93.0958 386.329 93.7272C386.358 94.3679 386.273 95.1311 386.084 96.0075Z" fill="#5E2E86"/>
<path d="M391.173 107.89C391.993 107.89 392.643 107.805 393.133 107.635C393.613 107.466 394.009 107.145 394.32 106.693C394.621 106.241 394.857 105.591 395.027 104.752L395.064 104.582C394.716 104.667 394.254 104.743 393.651 104.818C393.048 104.893 392.567 104.931 392.181 104.931C388.45 104.931 387.017 102.877 387.894 98.7685L388.289 96.931C388.591 95.5364 389.043 94.3774 389.646 93.4728C390.249 92.5682 391.013 91.8897 391.936 91.4468C392.859 91.004 393.952 90.7778 395.206 90.7778C396.525 90.7778 397.976 90.9663 399.569 91.3526C399.766 91.3903 399.898 91.4563 399.955 91.5317C400.011 91.607 400.011 91.739 399.974 91.9274L397.241 104.761C396.864 106.561 396.148 107.833 395.083 108.578C394.018 109.322 392.596 109.699 390.805 109.699C389.929 109.699 389.137 109.595 388.431 109.388C387.724 109.181 387.206 108.973 386.885 108.747C386.678 108.597 386.603 108.408 386.65 108.172L386.838 107.343C386.866 107.193 386.932 107.089 387.055 107.013C387.177 106.938 387.319 106.938 387.47 107.013C388.252 107.343 388.874 107.569 389.316 107.701C389.759 107.824 390.381 107.89 391.173 107.89ZM395.441 102.792L397.552 92.898C396.6 92.7189 395.686 92.6247 394.81 92.6247C394.188 92.6247 393.642 92.7001 393.17 92.8603C392.699 93.0205 392.294 93.2749 391.964 93.6141C391.634 93.9628 391.342 94.3962 391.107 94.9428C390.862 95.4799 390.664 96.1395 390.494 96.9121L390.108 98.7496C389.891 99.8144 389.835 100.653 389.948 101.284C390.061 101.916 390.344 102.368 390.777 102.641C391.22 102.924 391.823 103.056 392.596 103.056C393.001 103.056 393.472 103.028 394.028 102.971C394.574 102.943 395.055 102.867 395.441 102.792Z" fill="#5E2E86"/>
<defs>
<linearGradient id="paint0_linear_33679_2" x1="88.9816" y1="39.5391" x2="33.7549" y2="47.1832" gradientUnits="userSpaceOnUse">
<stop stop-color="#FDB913"/>
<stop offset="0.7" stop-color="#F58220"/>
<stop offset="1" stop-color="#DD5928"/>
</linearGradient>
<linearGradient id="paint1_linear_33679_2" x1="29.8745" y1="-17.9225" x2="64.1077" y2="26.0849" gradientUnits="userSpaceOnUse">
<stop stop-color="#FDB913"/>
<stop offset="0.7" stop-color="#F58220"/>
<stop offset="1" stop-color="#DD5928"/>
</linearGradient>
<linearGradient id="paint2_linear_33679_2" x1="9.66992" y1="62.0011" x2="30.6647" y2="10.349" gradientUnits="userSpaceOnUse">
<stop stop-color="#FDB913"/>
<stop offset="0.7" stop-color="#F58220"/>
<stop offset="1" stop-color="#DD5928"/>
</linearGradient>
</defs>
</svg>
