<svg width="20" height="20" viewBox="0 0 20 20" fill="currentColor" xmlns="http://www.w3.org/2000/svg">
<path d="M7.42492 17.2253C7.26659 17.2253 7.10825 17.1669 6.98325 17.0419C6.74159 16.8003 6.74159 16.4003 6.98325 16.1586L12.4166 10.7253C12.8166 10.3253 12.8166 9.67526 12.4166 9.27526L6.98325 3.84193C6.74159 3.60026 6.74159 3.20026 6.98325 2.95859C7.22492 2.71693 7.62492 2.71693 7.86658 2.95859L13.2999 8.39193C13.7249 8.81693 13.9666 9.39193 13.9666 10.0003C13.9666 10.6086 13.7333 11.1836 13.2999 11.6086L7.86658 17.0419C7.74158 17.1586 7.58325 17.2253 7.42492 17.2253Z" fill="currentColor"/>
</svg>
