<svg width="24" height="24" viewBox="0 0 24 24" fill="none" xmlns="http://www.w3.org/2000/svg">
<path d="M14.4301 18.8191C14.2401 18.8191 14.0501 18.7491 13.9001 18.5991C13.6101 18.3091 13.6101 17.8291 13.9001 17.5391L19.4401 11.9991L13.9001 6.45914C13.6101 6.16914 13.6101 5.68914 13.9001 5.39914C14.1901 5.10914 14.6701 5.10914 14.9601 5.39914L21.0301 11.4691C21.3201 11.7591 21.3201 12.2391 21.0301 12.5291L14.9601 18.5991C14.8101 18.7491 14.6201 18.8191 14.4301 18.8191Z" fill="currentColor"/>
<path d="M20.33 12.75H3.5C3.09 12.75 2.75 12.41 2.75 12C2.75 11.59 3.09 11.25 3.5 11.25H20.33C20.74 11.25 21.08 11.59 21.08 12C21.08 12.41 20.74 12.75 20.33 12.75Z" fill="currentColor"/>
</svg>
