<svg width="17" height="16" viewBox="0 0 17 16" fill="none" xmlns="http://www.w3.org/2000/svg">
<path d="M10.1199 12.5467C9.99325 12.5467 9.86658 12.5001 9.76658 12.4001C9.57325 12.2067 9.57325 11.8867 9.76658 11.6934L13.4599 8.00008L9.76658 4.30674C9.57325 4.11341 9.57325 3.79341 9.76658 3.60008C9.95992 3.40674 10.2799 3.40674 10.4732 3.60008L14.5199 7.64674C14.7132 7.84008 14.7132 8.16008 14.5199 8.35341L10.4732 12.4001C10.3732 12.5001 10.2466 12.5467 10.1199 12.5467Z" fill="#FF9E00"/>
<path d="M14.0535 8.5H2.8335C2.56016 8.5 2.3335 8.27333 2.3335 8C2.3335 7.72667 2.56016 7.5 2.8335 7.5H14.0535C14.3268 7.5 14.5535 7.72667 14.5535 8C14.5535 8.27333 14.3268 8.5 14.0535 8.5Z" fill="url(#paint0_linear_34877_44854)"/>
<defs>
<linearGradient id="paint0_linear_34877_44854" x1="2.3335" y1="8" x2="15.0848" y2="8" gradientUnits="userSpaceOnUse">
<stop stop-color="#FF6D00"/>
<stop offset="0.5" stop-color="#FF8500"/>
<stop offset="1" stop-color="#FF9100"/>
</linearGradient>
</defs>
</svg>
