<svg width="64" height="64" viewBox="0 0 64 64" fill="none" xmlns="http://www.w3.org/2000/svg">
<path d="M0 32C0 14.3269 14.3269 0 32 0C49.6731 0 64 14.3269 64 32C64 49.6731 49.6731 64 32 64C14.3269 64 0 49.6731 0 32Z" fill="#FFFAE7"/>
<path d="M38.3333 20.746V18.666C38.3333 18.1193 37.88 17.666 37.3333 17.666C36.7866 17.666 36.3333 18.1193 36.3333 18.666V20.666H27.6666V18.666C27.6666 18.1193 27.2133 17.666 26.6666 17.666C26.12 17.666 25.6666 18.1193 25.6666 18.666V20.746C22.0666 21.0793 20.32 23.226 20.0533 26.4127C20.0266 26.7993 20.3466 27.1193 20.72 27.1193H43.28C43.6666 27.1193 43.9866 26.786 43.9466 26.4127C43.68 23.226 41.9333 21.0793 38.3333 20.746Z" fill="#FFCD17"/>
<path d="M42.6667 29.1191H21.3333C20.6 29.1191 20 29.7191 20 30.4525V38.6658C20 42.6658 22 45.3325 26.6667 45.3325H37.3333C42 45.3325 44 42.6658 44 38.6658V30.4525C44 29.7191 43.4 29.1191 42.6667 29.1191ZM28.28 40.2791C28.1467 40.3991 28 40.4925 27.84 40.5591C27.68 40.6258 27.5067 40.6658 27.3333 40.6658C27.16 40.6658 26.9867 40.6258 26.8267 40.5591C26.6667 40.4925 26.52 40.3991 26.3867 40.2791C26.1467 40.0258 26 39.6791 26 39.3325C26 38.9858 26.1467 38.6391 26.3867 38.3858C26.52 38.2658 26.6667 38.1725 26.8267 38.1058C27.1467 37.9725 27.52 37.9725 27.84 38.1058C28 38.1725 28.1467 38.2658 28.28 38.3858C28.52 38.6391 28.6667 38.9858 28.6667 39.3325C28.6667 39.6791 28.52 40.0258 28.28 40.2791ZM28.56 35.1725C28.4933 35.3325 28.4 35.4791 28.28 35.6125C28.1467 35.7325 28 35.8258 27.84 35.8925C27.68 35.9591 27.5067 35.9991 27.3333 35.9991C27.16 35.9991 26.9867 35.9591 26.8267 35.8925C26.6667 35.8258 26.52 35.7325 26.3867 35.6125C26.2667 35.4791 26.1733 35.3325 26.1067 35.1725C26.04 35.0125 26 34.8391 26 34.6658C26 34.4925 26.04 34.3191 26.1067 34.1591C26.1733 33.9991 26.2667 33.8525 26.3867 33.7191C26.52 33.5991 26.6667 33.5058 26.8267 33.4391C27.1467 33.3058 27.52 33.3058 27.84 33.4391C28 33.5058 28.1467 33.5991 28.28 33.7191C28.4 33.8525 28.4933 33.9991 28.56 34.1591C28.6267 34.3191 28.6667 34.4925 28.6667 34.6658C28.6667 34.8391 28.6267 35.0125 28.56 35.1725ZM32.9467 35.6125C32.8133 35.7325 32.6667 35.8258 32.5067 35.8925C32.3467 35.9591 32.1733 35.9991 32 35.9991C31.8267 35.9991 31.6533 35.9591 31.4933 35.8925C31.3333 35.8258 31.1867 35.7325 31.0533 35.6125C30.8133 35.3591 30.6667 35.0125 30.6667 34.6658C30.6667 34.3191 30.8133 33.9725 31.0533 33.7191C31.1867 33.5991 31.3333 33.5058 31.4933 33.4391C31.8133 33.2925 32.1867 33.2925 32.5067 33.4391C32.6667 33.5058 32.8133 33.5991 32.9467 33.7191C33.1867 33.9725 33.3333 34.3191 33.3333 34.6658C33.3333 35.0125 33.1867 35.3591 32.9467 35.6125Z" fill="#FFCD17"/>
</svg>
