<svg width="64" height="64" viewBox="0 0 64 64" fill="none" xmlns="http://www.w3.org/2000/svg">
<path d="M0 32C0 14.3269 14.3269 0 32 0V0C49.6731 0 64 14.3269 64 32V32C64 49.6731 49.6731 64 32 64V64C14.3269 64 0 49.6731 0 32V32Z" fill="#F7F8FD"/>
<path d="M38.3333 20.746V18.666C38.3333 18.1193 37.88 17.666 37.3333 17.666C36.7866 17.666 36.3333 18.1193 36.3333 18.666V20.666H27.6666V18.666C27.6666 18.1193 27.2133 17.666 26.6666 17.666C26.12 17.666 25.6666 18.1193 25.6666 18.666V20.746C22.0666 21.0793 20.32 23.226 20.0533 26.4127C20.0266 26.7993 20.3466 27.1193 20.72 27.1193H43.28C43.6666 27.1193 43.9866 26.786 43.9466 26.4127C43.68 23.226 41.9333 21.0793 38.3333 20.746Z" fill="#45445F"/>
<path d="M42.6667 29.1191H21.3333C20.6 29.1191 20 29.7191 20 30.4525V38.6658C20 42.6658 22 45.3325 26.6667 45.3325H33.24C34.16 45.3325 34.8 44.4391 34.5067 43.5725C34.24 42.7991 34.0133 41.9458 34.0133 41.3325C34.0133 37.2925 37.3067 33.9991 41.3467 33.9991C41.7333 33.9991 42.12 34.0258 42.4933 34.0925C43.2933 34.2125 44.0133 33.5858 44.0133 32.7858V30.4658C44 29.7191 43.4 29.1191 42.6667 29.1191ZM28.28 39.6125C28.0267 39.8525 27.68 39.9991 27.3333 39.9991C27.16 39.9991 26.9867 39.9591 26.8267 39.8925C26.6667 39.8258 26.52 39.7325 26.3867 39.6125C26.1467 39.3591 26 39.0258 26 38.6658C26 38.4925 26.04 38.3191 26.1067 38.1591C26.1733 37.9858 26.2667 37.8525 26.3867 37.7191C26.52 37.5991 26.6667 37.5058 26.8267 37.4391C27.3067 37.2258 27.9067 37.3458 28.28 37.7191C28.4 37.8525 28.4933 37.9858 28.56 38.1591C28.6267 38.3191 28.6667 38.4925 28.6667 38.6658C28.6667 39.0258 28.52 39.3591 28.28 39.6125ZM28.28 34.9458C28.0267 35.1858 27.68 35.3325 27.3333 35.3325C27.16 35.3325 26.9867 35.3058 26.8267 35.2258C26.6667 35.1591 26.52 35.0658 26.3867 34.9458C26.1467 34.6925 26 34.3458 26 33.9991C26 33.8258 26.04 33.6525 26.1067 33.4925C26.1733 33.3325 26.2667 33.1858 26.3867 33.0525C26.52 32.9325 26.6667 32.8391 26.8267 32.7725C27.3067 32.5725 27.9067 32.6791 28.28 33.0525C28.4 33.1858 28.4933 33.3325 28.56 33.4925C28.6267 33.6525 28.6667 33.8258 28.6667 33.9991C28.6667 34.3458 28.52 34.6925 28.28 34.9458ZM33.2267 34.5058C33.16 34.6658 33.0667 34.8125 32.9467 34.9458C32.8133 35.0658 32.6667 35.1591 32.5067 35.2258C32.3467 35.3058 32.1733 35.3325 32 35.3325C31.6533 35.3325 31.3067 35.1858 31.0533 34.9458C30.9333 34.8125 30.84 34.6658 30.7733 34.5058C30.7067 34.3458 30.6667 34.1725 30.6667 33.9991C30.6667 33.6525 30.8133 33.3058 31.0533 33.0525C31.4267 32.6791 32.0133 32.5591 32.5067 32.7725C32.6667 32.8391 32.8133 32.9325 32.9467 33.0525C33.1867 33.3058 33.3333 33.6525 33.3333 33.9991C33.3333 34.1725 33.3067 34.3458 33.2267 34.5058Z" fill="#45445F"/>
<path d="M41.3333 36C38.3867 36 36 38.3867 36 41.3333C36 44.28 38.3867 46.6667 41.3333 46.6667C44.28 46.6667 46.6667 44.28 46.6667 41.3333C46.6667 38.3867 44.28 36 41.3333 36ZM43.4667 43.52C43.2667 43.72 43.0133 43.8133 42.76 43.8133C42.5067 43.8133 42.2533 43.72 42.0533 43.52L41.3467 42.8133L40.6133 43.5467C40.4133 43.7467 40.16 43.84 39.9067 43.84C39.6533 43.84 39.4 43.7467 39.2 43.5467C38.8133 43.16 38.8133 42.52 39.2 42.1333L39.9333 41.4L39.2267 40.6933C38.84 40.3067 38.84 39.6667 39.2267 39.28C39.6133 38.8933 40.2533 38.8933 40.64 39.28L41.3467 40L42.0133 39.3333C42.4 38.9467 43.04 38.9467 43.4267 39.3333C43.8133 39.72 43.8133 40.36 43.4267 40.7467L42.76 41.4133L43.4667 42.12C43.8533 42.5067 43.8533 43.1333 43.4667 43.52Z" fill="#F74360"/>
</svg>
