<svg width="64" height="64" viewBox="0 0 64 64" fill="none" xmlns="http://www.w3.org/2000/svg">
<path d="M0 32C0 14.3269 14.3269 0 32 0C49.6731 0 64 14.3269 64 32C64 49.6731 49.6731 64 32 64C14.3269 64 0 49.6731 0 32Z" fill="#FFF1F9"/>
<path d="M43.493 27.5993C42.1063 21.426 36.7197 18.666 31.9997 18.666C31.9997 18.666 31.9997 18.666 31.9863 18.666C27.2797 18.666 21.9063 21.426 20.5063 27.586C18.933 34.466 23.1463 40.2927 26.9597 43.9727C28.373 45.3327 30.1863 46.0127 31.9997 46.0127C33.813 46.0127 35.6263 45.3327 37.0263 43.9727C40.8397 40.2927 45.053 34.4793 43.493 27.5993ZM36.373 28.706L31.0397 34.0393C30.8397 34.2393 30.5863 34.3327 30.333 34.3327C30.0797 34.3327 29.8263 34.2393 29.6263 34.0393L27.6263 32.0393C27.2397 31.6527 27.2397 31.0127 27.6263 30.626C28.013 30.2393 28.653 30.2393 29.0397 30.626L30.333 31.9193L34.9597 27.2927C35.3463 26.906 35.9863 26.906 36.373 27.2927C36.7597 27.6793 36.7597 28.3193 36.373 28.706Z" fill="#FF73C3"/>
</svg>
