<svg width="64" height="64" viewBox="0 0 64 64" fill="none" xmlns="http://www.w3.org/2000/svg">
<path d="M0 32C0 14.3269 14.3269 0 32 0C49.6731 0 64 14.3269 64 32C64 49.6731 49.6731 64 32 64C14.3269 64 0 49.6731 0 32Z" fill="#EDF9F0"/>
<path d="M32.0003 18.666C24.6537 18.666 18.667 24.6527 18.667 31.9993C18.667 39.346 24.6537 45.3327 32.0003 45.3327C39.347 45.3327 45.3337 39.346 45.3337 31.9993C45.3337 24.6527 39.347 18.666 32.0003 18.666ZM38.3737 28.9327L30.8137 36.4927C30.627 36.6793 30.3737 36.786 30.107 36.786C29.8403 36.786 29.587 36.6793 29.4003 36.4927L25.627 32.7193C25.2403 32.3327 25.2403 31.6927 25.627 31.306C26.0137 30.9193 26.6537 30.9193 27.0403 31.306L30.107 34.3727L36.9603 27.5194C37.347 27.1327 37.987 27.1327 38.3737 27.5194C38.7603 27.906 38.7603 28.5327 38.3737 28.9327Z" fill="#36BF57"/>
</svg>
