<svg width="64" height="64" viewBox="0 0 64 64" fill="none" xmlns="http://www.w3.org/2000/svg">
<path d="M0 32C0 14.3269 14.3269 0 32 0C49.6731 0 64 14.3269 64 32C64 49.6731 49.6731 64 32 64C14.3269 64 0 49.6731 0 32Z" fill="#FFF4EC"/>
<path d="M31.9999 34.666C25.3199 34.666 19.8799 39.146 19.8799 44.666C19.8799 45.0394 20.1732 45.3327 20.5465 45.3327H43.4532C43.8266 45.3327 44.1199 45.0394 44.1199 44.666C44.1199 39.146 38.6799 34.666 31.9999 34.666Z" fill="#FB8429"/>
<path d="M31.9997 18.666C30.4263 18.666 28.9863 19.2127 27.8397 20.1327C26.3063 21.346 25.333 23.226 25.333 25.3327C25.333 26.586 25.6797 27.7593 26.3063 28.7593C27.453 30.6927 29.5597 31.9993 31.9997 31.9993C33.6797 31.9993 35.213 31.386 36.3863 30.3327C36.9063 29.8927 37.3597 29.3593 37.7063 28.7593C38.3197 27.7593 38.6663 26.586 38.6663 25.3327C38.6663 21.6527 35.6797 18.666 31.9997 18.666ZM35.453 24.6127L31.893 27.8927C31.653 28.1193 31.3463 28.226 31.0397 28.226C30.7197 28.226 30.3997 28.106 30.1597 27.866L28.5197 26.2127C28.0263 25.7193 28.0263 24.9327 28.5197 24.4393C29.013 23.946 29.7997 23.946 30.293 24.4393L31.0797 25.226L33.7597 22.7593C34.2663 22.2927 35.053 22.3193 35.5197 22.826C35.9863 23.346 35.9597 24.146 35.453 24.6127Z" fill="#FB8429"/>
</svg>
