<svg width="29" height="22" viewBox="0 0 29 22" fill="none" xmlns="http://www.w3.org/2000/svg">
<path d="M5.21318 7.41087C6.22821 7.48294 7.10944 6.71852 7.1815 5.70349C7.25357 4.68847 6.4891 3.80724 5.47412 3.73517C4.4591 3.66311 3.57787 4.42758 3.5058 5.44255C3.43374 6.45763 4.19815 7.33886 5.21318 7.41087Z" fill="#51158A"/>
<path d="M25.3896 6.203C25.7416 5.2485 25.2533 4.18932 24.2988 3.83723C23.3443 3.48515 22.2851 3.9735 21.933 4.92799C21.581 5.88248 22.0693 6.94167 23.0238 7.29375C23.9783 7.64584 25.0375 7.15749 25.3896 6.203Z" fill="#51158A"/>
<path d="M27.9512 7.92788C27.6072 7.8844 27.2932 8.1278 27.2496 8.4717L26.4378 14.8822L26.4788 9.482C26.4843 8.75688 25.8701 8.17959 25.1461 8.23098L23.0335 8.38094C22.3478 8.42959 21.8314 9.02492 21.8801 9.71056L21.9528 10.7346L22.7553 10.1545L21.5171 11.4426L18.4545 11.6277C17.9932 11.6556 17.6418 12.0522 17.6697 12.5136C17.6914 12.8731 17.937 13.1656 18.2625 13.2642C17.5987 13.2642 14.3253 13.2642 13.7481 13.2642C13.8867 13.2401 14.0061 13.1477 14.062 13.0152L15.4305 9.77285C15.5203 9.55989 15.4205 9.31445 15.2076 9.22463C14.9947 9.13486 14.7493 9.23452 14.6593 9.44742L13.3989 12.4341C12.6876 12.4341 11.7682 12.4341 11.3301 12.4341C11.3064 12.0162 10.9735 11.6727 10.5455 11.6469L7.48297 11.4618L6.24476 10.1736L7.49715 11.0789L10.5138 11.2612L11.3259 10.8658C11.7415 10.6635 11.9143 10.1626 11.7119 9.74701C11.5095 9.33144 11.0087 9.15861 10.5931 9.3609L8.16795 10.5417L7.12148 9.69512C7.15067 9.02415 6.6406 8.44784 5.9665 8.40002C5.39651 8.35956 4.40776 8.28936 3.85394 8.25006C3.13058 8.19872 2.51569 8.77519 2.52124 9.50107L2.5623 14.9015L1.7505 8.49083C1.70696 8.14688 1.39303 7.90364 1.04891 7.94695C0.705019 7.99049 0.4615 8.30459 0.505037 8.64854L1.47647 16.3196C1.51622 16.6332 1.78299 16.8684 2.09918 16.8684H3.88027V19.3576H3.24003C3.10134 19.3576 2.96831 19.4127 2.87013 19.5108L2.03343 20.3475C1.82916 20.5518 1.82916 20.8829 2.03343 21.0872C2.2377 21.2915 2.56879 21.2915 2.77317 21.0872L3.45667 20.4038H5.29037L5.97387 21.0872C6.076 21.1894 6.20985 21.2404 6.34376 21.2404C6.47767 21.2404 6.61147 21.1894 6.71366 21.0872C6.91793 20.8829 6.91793 20.5518 6.71366 20.3475L5.87695 19.5108C5.77883 19.4128 5.6458 19.3576 5.50706 19.3576H4.92646V16.8684H6.91985C7.26655 16.8684 7.54756 16.5874 7.54756 16.2408C7.54756 16.2252 7.54635 16.2098 7.54525 16.1945L7.80048 16.2604L8.37469 20.4274C8.44583 20.9433 8.92165 21.3024 9.43601 21.2315C9.95108 21.1605 10.3111 20.6854 10.2402 20.1703L9.5797 15.378C9.52753 14.9997 9.25208 14.6904 8.88229 14.5949L6.81249 14.0605L6.85339 13.4843C6.59102 13.468 6.36295 13.3254 6.22662 13.1229L5.038 11.3336L6.50279 12.8574C6.64841 13.009 6.84581 13.1001 7.05563 13.1128L10.0231 13.2922C9.76105 13.3732 9.58107 13.6167 9.58107 13.8919C9.58107 14.2386 9.86208 14.5196 10.2088 14.5196H10.5963V20.7174C10.5963 21.0062 10.8305 21.2404 11.1194 21.2404C11.4082 21.2404 11.6425 21.0062 11.6425 20.7174V14.5196H17.3185V20.7174C17.3185 21.0062 17.5528 21.2404 17.8416 21.2404C18.1305 21.2404 18.3647 21.0062 18.3647 20.7174V14.5196H18.7522C19.0989 14.5196 19.3799 14.2386 19.3799 13.8919C19.3799 13.6 19.1753 13.3414 18.8852 13.2787L21.9446 13.0938C22.1543 13.0811 22.3517 12.9899 22.4974 12.8384L23.9622 11.3145L22.7736 13.1038C22.6278 13.3232 22.3939 13.4489 22.15 13.4651L22.1468 13.4653L22.1891 14.0602L20.1179 14.5949C19.7482 14.6904 19.4728 14.9997 19.4205 15.378L18.7601 20.1703C18.6825 20.7332 19.1187 21.2404 19.694 21.2404C20.1569 21.2404 20.5605 20.8988 20.6255 20.4273L21.1997 16.2603L21.4539 16.1947C21.4536 16.2037 21.4526 16.2125 21.4526 16.2216C21.4526 16.5683 21.7336 16.8493 22.0803 16.8493H24.0737V19.3576H23.4931C23.3544 19.3576 23.2213 19.4127 23.1232 19.5108L22.2865 20.3475C22.0823 20.5518 22.0823 20.8829 22.2865 21.0872C22.4908 21.2915 22.8219 21.2915 23.0263 21.0872L23.7097 20.4038H25.5435L26.227 21.0872C26.4313 21.2915 26.7624 21.2915 26.9667 21.0872C27.171 20.8829 27.171 20.5518 26.9667 20.3475L26.13 19.5108C26.0319 19.4128 25.8988 19.3576 25.7601 19.3576H25.1198V16.8493H26.9008C27.217 16.8493 27.4838 16.6141 27.5235 16.3005L28.495 8.62941C28.5385 8.28551 28.2951 7.97141 27.9512 7.92788Z" fill="#51158A"/>
<path d="M12.3944 4.48126H12.7009C12.7427 4.61082 12.7949 4.73571 12.8562 4.85527L12.6392 5.07224C12.5529 5.15849 12.5529 5.29828 12.6392 5.38453L13.4308 6.1761C13.517 6.26235 13.6568 6.26235 13.743 6.1761L13.96 5.95913C14.0796 6.02037 14.2044 6.07253 14.334 6.11442V6.42083C14.334 6.54281 14.4329 6.64164 14.5548 6.64164H15.6743C15.7962 6.64164 15.8951 6.54275 15.8951 6.42083V6.11442C16.0247 6.07253 16.1495 6.02037 16.2691 5.95913L16.4861 6.1761C16.5723 6.26235 16.7121 6.26229 16.7983 6.1761L17.5899 5.38453C17.6762 5.29828 17.6762 5.15843 17.5899 5.07224L17.373 4.85527C17.4342 4.73571 17.4864 4.61082 17.5282 4.48126H17.8347C17.9567 4.48126 18.0555 4.38236 18.0555 4.26044V3.14102C18.0555 3.01904 17.9566 2.92021 17.8347 2.92021H17.5282C17.4864 2.79059 17.4342 2.66575 17.373 2.54619L17.5899 2.32922C17.6762 2.24297 17.6762 2.10318 17.5899 2.01694L16.7983 1.22542C16.7122 1.13917 16.5723 1.13917 16.4861 1.22542L16.2691 1.44239C16.1495 1.38115 16.0247 1.32898 15.8951 1.28704V0.980582C15.8951 0.858603 15.7962 0.759766 15.6743 0.759766H14.5548C14.4329 0.759766 14.334 0.858603 14.334 0.980582V1.28699C14.2044 1.32887 14.0796 1.38104 13.96 1.44233L13.743 1.22536C13.6568 1.13912 13.517 1.13912 13.4308 1.22536L12.6392 2.01688C12.5529 2.10313 12.5529 2.24292 12.6392 2.32917L12.8562 2.54614C12.7949 2.6657 12.7427 2.79053 12.7009 2.92015H12.3944C12.2724 2.92015 12.1736 3.01899 12.1736 3.14097V4.26038C12.1735 4.38236 12.2724 4.48126 12.3944 4.48126ZM15.1146 2.24809C15.9168 2.24809 16.5672 2.89844 16.5672 3.70073C16.5672 4.50297 15.9168 5.15338 15.1146 5.15338C14.3123 5.15338 13.6619 4.50302 13.6619 3.70073C13.6619 2.89844 14.3123 2.24809 15.1146 2.24809Z" fill="#FF6D00"/>
</svg>
