<svg width="28" height="28" viewBox="0 0 28 28" fill="none" xmlns="http://www.w3.org/2000/svg">
<g clip-path="url(#clip0_35534_9474)">
<path d="M14.0001 6.66667C12.989 6.66667 12.1667 5.84442 12.1667 4.83333C12.1667 3.82225 12.989 3 14.0001 3C15.0112 3 15.8334 3.82225 15.8334 4.83333C15.8334 5.84442 15.0112 6.66667 14.0001 6.66667Z" fill="#5A189A"/>
<path d="M16.9791 10.333H11.0208C10.6413 10.333 10.3333 10.025 10.3333 9.64551C10.3333 8.50792 11.2591 7.58301 12.3958 7.58301H15.6041C16.7408 7.58301 17.6666 8.50792 17.6666 9.64551C17.6666 10.025 17.3586 10.333 16.9791 10.333Z" fill="#5A189A"/>
<path d="M21.3333 21.333C22.0926 21.333 22.7083 20.7174 22.7083 19.958C22.7083 19.1986 22.0926 18.583 21.3333 18.583C20.5739 18.583 19.9583 19.1986 19.9583 19.958C19.9583 20.7174 20.5739 21.333 21.3333 21.333Z" fill="#F58220"/>
<path d="M23.3958 25H19.2708C18.8913 25 18.5833 24.692 18.5833 24.3125C18.5833 23.1749 19.5091 22.25 20.6458 22.25H22.0208C23.1574 22.25 24.0833 23.1749 24.0833 24.3125C24.0833 24.692 23.7753 25 23.3958 25Z" fill="#F58220"/>
<path d="M14 21.333C14.7594 21.333 15.375 20.7174 15.375 19.958C15.375 19.1986 14.7594 18.583 14 18.583C13.2406 18.583 12.625 19.1986 12.625 19.958C12.625 20.7174 13.2406 21.333 14 21.333Z" fill="#F58220"/>
<path d="M16.0625 25H11.9375C11.558 25 11.25 24.692 11.25 24.3125C11.25 23.1749 12.1758 22.25 13.3125 22.25H14.6875C15.8242 22.25 16.75 23.1749 16.75 24.3125C16.75 24.692 16.442 25 16.0625 25Z" fill="#F58220"/>
<path d="M6.66675 21.333C7.42614 21.333 8.04175 20.7174 8.04175 19.958C8.04175 19.1986 7.42614 18.583 6.66675 18.583C5.90736 18.583 5.29175 19.1986 5.29175 19.958C5.29175 20.7174 5.90736 21.333 6.66675 21.333Z" fill="#F58220"/>
<path d="M8.72925 25H4.60425C4.22475 25 3.91675 24.692 3.91675 24.3125C3.91675 23.1749 4.84258 22.25 5.97925 22.25H7.35425C8.49091 22.25 9.41675 23.1749 9.41675 24.3125C9.41675 24.692 9.10875 25 8.72925 25Z" fill="#F58220"/>
<path d="M19.4999 11.25H8.49992C7.993 11.25 7.58325 11.6607 7.58325 12.1667C7.58325 12.6727 7.993 13.0833 8.49992 13.0833H9.0545L9.65492 18.6842C9.71817 19.3139 10.2077 19.5 10.8383 19.5C11.0629 17.949 12.3884 16.75 13.9999 16.75C15.6114 16.75 16.9369 17.949 17.1615 19.5C17.7922 19.5 18.2817 19.3139 18.3449 18.6842L18.9453 13.0833H19.4999C20.0068 13.0833 20.4166 12.6727 20.4166 12.1667C20.4166 11.6607 20.0068 11.25 19.4999 11.25Z" fill="#5A189A"/>
</g>
<defs>
<clipPath id="clip0_35534_9474">
<rect width="22" height="22" fill="white" transform="translate(3 3)"/>
</clipPath>
</defs>
</svg>
