<svg width="28" height="28" viewBox="0 0 28 28" fill="none" xmlns="http://www.w3.org/2000/svg">
<path d="M0 14C0 6.26801 6.26801 0 14 0C21.732 0 28 6.26801 28 14C28 21.732 21.732 28 14 28C6.26801 28 0 21.732 0 14Z" fill="url(#paint0_linear_35232_18641)"/>
<path d="M14 17.1673C11.1534 17.1673 8.83337 14.8473 8.83337 12.0007C8.83337 9.15398 11.1534 6.83398 14 6.83398C16.8467 6.83398 19.1667 9.15398 19.1667 12.0007C19.1667 14.8473 16.8467 17.1673 14 17.1673ZM14 7.83398C11.7 7.83398 9.83337 9.70065 9.83337 12.0007C9.83337 14.3007 11.7 16.1673 14 16.1673C16.3 16.1673 18.1667 14.3007 18.1667 12.0007C18.1667 9.70065 16.3 7.83398 14 7.83398Z" fill="white"/>
<path d="M14 21.166C13.7267 21.166 13.5 20.9393 13.5 20.666V16.666C13.5 16.3927 13.7267 16.166 14 16.166C14.2733 16.166 14.5 16.3927 14.5 16.666V20.666C14.5 20.9393 14.2733 21.166 14 21.166Z" fill="white"/>
<path d="M16 19.166H12C11.7267 19.166 11.5 18.9393 11.5 18.666C11.5 18.3927 11.7267 18.166 12 18.166H16C16.2733 18.166 16.5 18.3927 16.5 18.666C16.5 18.9393 16.2733 19.166 16 19.166Z" fill="white"/>
<defs>
<linearGradient id="paint0_linear_35232_18641" x1="0" y1="14" x2="29.2174" y2="14" gradientUnits="userSpaceOnUse">
<stop stop-color="#FF6D00"/>
<stop offset="0.5" stop-color="#FF8500"/>
<stop offset="1" stop-color="#FF9100"/>
</linearGradient>
</defs>
</svg>
