<svg width="16" height="17" viewBox="0 0 16 17" fill="none" xmlns="http://www.w3.org/2000/svg">
<path d="M13.9803 1.16602H12.0203C11.4403 1.16602 11.0137 1.40602 10.8203 1.83268C10.7137 2.02602 10.667 2.25268 10.667 2.51935V4.47935C10.667 5.32602 11.1737 5.83268 12.0203 5.83268H13.9803C14.247 5.83268 14.4737 5.78602 14.667 5.67935C15.0937 5.48602 15.3337 5.05935 15.3337 4.47935V2.51935C15.3337 1.67268 14.827 1.16602 13.9803 1.16602ZM14.607 3.78602C14.5403 3.85268 14.4403 3.89935 14.3337 3.90602H13.3937V4.24602L13.4003 4.83268C13.3937 4.94602 13.3537 5.03935 13.2737 5.11935C13.207 5.18602 13.107 5.23268 13.0003 5.23268C12.7803 5.23268 12.6003 5.05268 12.6003 4.83268V3.89935L11.667 3.90602C11.447 3.90602 11.267 3.71935 11.267 3.49935C11.267 3.27935 11.447 3.09935 11.667 3.09935L12.2537 3.10602H12.6003V2.17268C12.6003 1.95268 12.7803 1.76602 13.0003 1.76602C13.2203 1.76602 13.4003 1.95268 13.4003 2.17268L13.3937 2.64602V3.09935H14.3337C14.5537 3.09935 14.7337 3.27935 14.7337 3.49935C14.727 3.61268 14.6803 3.70602 14.607 3.78602Z" fill="#51158A"/>
<path d="M5.99975 7.41943C6.87604 7.41943 7.58642 6.70905 7.58642 5.83276C7.58642 4.95647 6.87604 4.24609 5.99975 4.24609C5.12346 4.24609 4.41309 4.95647 4.41309 5.83276C4.41309 6.70905 5.12346 7.41943 5.99975 7.41943Z" fill="#51158A"/>
<path d="M13.9797 5.83398H13.6663V8.90732L13.5797 8.83398C13.0597 8.38732 12.2197 8.38732 11.6997 8.83398L8.92634 11.214C8.40634 11.6607 7.56634 11.6607 7.04634 11.214L6.81967 11.0273C6.34634 10.614 5.59301 10.574 5.05967 10.934L2.56634 12.6073C2.41967 12.234 2.33301 11.8007 2.33301 11.294V5.70732C2.33301 3.82732 3.32634 2.83398 5.20634 2.83398H10.6663V2.52065C10.6663 2.25398 10.713 2.02732 10.8197 1.83398H5.20634C2.77967 1.83398 1.33301 3.28065 1.33301 5.70732V11.294C1.33301 12.0207 1.45967 12.654 1.70634 13.1873C2.27967 14.454 3.50634 15.1673 5.20634 15.1673H10.793C13.2197 15.1673 14.6663 13.7207 14.6663 11.294V5.68065C14.473 5.78732 14.2463 5.83398 13.9797 5.83398Z" fill="#51158A"/>
</svg>
