<svg width="22" height="22" viewBox="0 0 22 22" fill="none" xmlns="http://www.w3.org/2000/svg">
<path d="M17.8744 10.5417C18.2996 10.5409 18.7072 10.3717 19.0079 10.071C19.3086 9.77033 19.4778 9.36273 19.4786 8.9375V1.60417C19.4778 1.17894 19.3086 0.771335 19.0079 0.470653C18.7072 0.16997 18.2996 0.000727094 17.8744 0L5.04106 0C4.61583 0.000727094 4.20822 0.16997 3.90754 0.470653C3.60686 0.771335 3.43762 1.17894 3.43689 1.60417V8.9375C3.43762 9.36273 3.60686 9.77033 3.90754 10.071C4.20822 10.3717 4.61583 10.5409 5.04106 10.5417H10.5411C10.5712 10.5415 10.601 10.5474 10.6289 10.5589C10.6568 10.5703 10.6821 10.5872 10.7034 10.6085C10.7247 10.6298 10.7416 10.6551 10.753 10.683C10.7645 10.7109 10.7703 10.7407 10.7702 10.7708V12.6042C10.7701 12.7402 10.8104 12.8732 10.8859 12.9863C10.9615 13.0994 11.0689 13.1875 11.1946 13.2394C11.278 13.2742 11.3674 13.292 11.4577 13.2917C11.6399 13.2917 11.8146 13.2195 11.9436 13.0909L14.425 10.6068C14.4681 10.5639 14.5264 10.5398 14.5872 10.5398L17.8744 10.5417ZM13.7219 9.36742L12.5366 10.5508C12.5046 10.5829 12.4639 10.6048 12.4194 10.6137C12.375 10.6226 12.3289 10.6181 12.2871 10.6009C12.2452 10.5836 12.2093 10.5543 12.1841 10.5167C12.1589 10.4791 12.1453 10.4348 12.1452 10.3895V9.85142C12.1445 9.66956 12.0717 9.49539 11.9429 9.36706C11.814 9.23872 11.6396 9.16667 11.4577 9.16667H5.04106C4.98035 9.16643 4.9222 9.1422 4.87928 9.09928C4.83635 9.05635 4.81213 8.9982 4.81189 8.9375V1.60417C4.81213 1.54346 4.83635 1.48531 4.87928 1.44239C4.9222 1.39946 4.98035 1.37524 5.04106 1.375H17.8744C17.9351 1.37524 17.9932 1.39946 18.0362 1.44239C18.0791 1.48531 18.1033 1.54346 18.1036 1.60417V8.9375C18.1033 8.9982 18.0791 9.05635 18.0362 9.09928C17.9932 9.1422 17.9351 9.16643 17.8744 9.16667H14.2077C14.026 9.16585 13.8513 9.23704 13.7219 9.36467V9.36742Z" fill="#5A189A"/>
<path d="M4.4727 17.8744C6.11805 17.8744 7.45187 16.5405 7.45187 14.8952C7.45187 13.2498 6.11805 11.916 4.4727 11.916C2.82735 11.916 1.49353 13.2498 1.49353 14.8952C1.49353 16.5405 2.82735 17.8744 4.4727 17.8744Z" fill="#5A189A"/>
<path d="M4.47265 17.875C3.43386 17.8716 2.42509 18.2233 1.61364 18.8718C0.802184 19.5204 0.236794 20.4268 0.0112293 21.4409C-0.00388424 21.5079 -0.00374002 21.5774 0.0116513 21.6444C0.0270427 21.7113 0.0572874 21.774 0.100149 21.8276C0.14301 21.8813 0.197392 21.9247 0.259272 21.9545C0.321153 21.9844 0.388948 21.9999 0.457646 22H8.48765C8.55635 21.9999 8.62414 21.9844 8.68602 21.9545C8.7479 21.9247 8.80228 21.8813 8.84515 21.8276C8.88801 21.774 8.91825 21.7113 8.93364 21.6444C8.94903 21.5774 8.94918 21.5079 8.93406 21.4409C8.7085 20.4268 8.14311 19.5204 7.33166 18.8718C6.5202 18.2233 5.51144 17.8716 4.47265 17.875Z" fill="#5A189A"/>
<path d="M17.5259 17.8744C19.1713 17.8744 20.5051 16.5405 20.5051 14.8952C20.5051 13.2498 19.1713 11.916 17.5259 11.916C15.8806 11.916 14.5468 13.2498 14.5468 14.8952C14.5468 16.5405 15.8806 17.8744 17.5259 17.8744Z" fill="#F58220"/>
<path d="M21.9875 21.4398C21.7585 20.4277 21.1922 19.5235 20.3815 18.8757C19.5707 18.2279 18.5639 17.875 17.5261 17.875C16.4884 17.875 15.4815 18.2279 14.6708 18.8757C13.86 19.5235 13.2937 20.4277 13.0647 21.4398C13.0496 21.5068 13.0497 21.5764 13.0651 21.6434C13.0805 21.7103 13.1108 21.7729 13.1536 21.8266C13.1965 21.8803 13.2509 21.9237 13.3127 21.9535C13.3746 21.9833 13.4424 21.9989 13.5111 21.999H21.5411C21.6098 21.9989 21.6776 21.9833 21.7395 21.9535C21.8014 21.9237 21.8557 21.8803 21.8986 21.8266C21.9415 21.7729 21.9717 21.7103 21.9871 21.6434C22.0025 21.5764 22.0026 21.5068 21.9875 21.4398Z" fill="#F58220"/>
</svg>
