<svg width="16" height="16" viewBox="0 0 16 16" fill="none" xmlns="http://www.w3.org/2000/svg">
<path d="M7.99998 14.4331C7.79331 14.4331 7.59331 14.4064 7.42665 14.3464C4.87998 13.4731 0.833313 10.3731 0.833313 5.79307C0.833313 3.45974 2.71998 1.56641 5.03998 1.56641C6.16665 1.56641 7.21998 2.00641 7.99998 2.79307C8.77998 2.00641 9.83331 1.56641 10.96 1.56641C13.28 1.56641 15.1666 3.46641 15.1666 5.79307C15.1666 10.3797 11.12 13.4731 8.57331 14.3464C8.40665 14.4064 8.20665 14.4331 7.99998 14.4331ZM5.03998 2.56641C3.27331 2.56641 1.83331 4.01307 1.83331 5.79307C1.83331 10.3464 6.21331 12.8797 7.75331 13.4064C7.87331 13.4464 8.13331 13.4464 8.25331 13.4064C9.78665 12.8797 14.1733 10.3531 14.1733 5.79307C14.1733 4.01307 12.7333 2.56641 10.9666 2.56641C9.95331 2.56641 9.01331 3.03974 8.40665 3.85974C8.21998 4.11307 7.79331 4.11307 7.60665 3.85974C6.98665 3.03307 6.05331 2.56641 5.03998 2.56641Z" fill="currentColor"/>
</svg>
