<svg width="16" height="17" viewBox="0 0 16 17" fill="none" xmlns="http://www.w3.org/2000/svg">
<path d="M10.6434 11.9387L4.25919 5.55447C4.04106 5.33634 4.04106 4.97457 4.25919 4.75644C4.47732 4.53831 4.83909 4.53831 5.05722 4.75644L11.4415 11.1407C11.6596 11.3588 11.6596 11.7206 11.4415 11.9387C11.2233 12.1569 10.8616 12.1569 10.6434 11.9387Z" fill="#51158A"/>
<path d="M4.25774 11.9387C4.03961 11.7206 4.03961 11.3588 4.25774 11.1407L10.642 4.75644C10.8601 4.53831 11.2219 4.53831 11.44 4.75644C11.6582 4.97457 11.6582 5.33634 11.44 5.55447L5.05577 11.9387C4.83764 12.1569 4.47587 12.1569 4.25774 11.9387Z" fill="#51158A"/>
</svg>
