<svg width="0" height="0" viewBox="0 0 16 16" fill="none" xmlns="http://www.w3.org/2000/svg">
<path d="M8.79301 4H4.52634C4.35301 4 4.18634 4.00667 4.02634 4.02667C2.23301 4.18 1.33301 5.24 1.33301 7.19333V9.86C1.33301 12.5267 2.39967 13.0533 4.52634 13.0533H4.79301C4.93967 13.0533 5.13301 13.1533 5.21967 13.2667L6.01967 14.3333C6.37301 14.8067 6.94634 14.8067 7.29967 14.3333L8.09967 13.2667C8.19967 13.1333 8.35967 13.0533 8.52634 13.0533H8.79301C10.7463 13.0533 11.8063 12.16 11.9597 10.36C11.9797 10.2 11.9863 10.0333 11.9863 9.86V7.19333C11.9863 5.06667 10.9197 4 8.79301 4ZM4.33301 9.33333C3.95967 9.33333 3.66634 9.03333 3.66634 8.66667C3.66634 8.3 3.96634 8 4.33301 8C4.69967 8 4.99967 8.3 4.99967 8.66667C4.99967 9.03333 4.69967 9.33333 4.33301 9.33333ZM6.65967 9.33333C6.28634 9.33333 5.99301 9.03333 5.99301 8.66667C5.99301 8.3 6.29301 8 6.65967 8C7.02634 8 7.32634 8.3 7.32634 8.66667C7.32634 9.03333 7.03301 9.33333 6.65967 9.33333ZM8.99301 9.33333C8.61967 9.33333 8.32634 9.03333 8.32634 8.66667C8.32634 8.3 8.62634 8 8.99301 8C9.35967 8 9.65967 8.3 9.65967 8.66667C9.65967 9.03333 9.35967 9.33333 8.99301 9.33333Z" fill="url(#paint0_linear_35798_19261)"/>
<path d="M14.6532 4.52732V7.19398C14.6532 8.52732 14.2398 9.43398 13.4132 9.93398C13.2132 10.054 12.9798 9.89398 12.9798 9.66065L12.9865 7.19398C12.9865 4.52732 11.4598 3.00065 8.79317 3.00065L4.73317 3.00732C4.49984 3.00732 4.33984 2.77398 4.45984 2.57398C4.95984 1.74732 5.86651 1.33398 7.19317 1.33398H11.4598C13.5865 1.33398 14.6532 2.40065 14.6532 4.52732Z" fill="url(#paint1_linear_35798_19261)"/>
<defs>
<linearGradient id="paint0_linear_35798_19261" x1="1.33301" y1="9.34417" x2="12.4495" y2="9.34417" gradientUnits="userSpaceOnUse">
<stop stop-color="#FF6D00"/>
<stop offset="0.5" stop-color="#FF8500"/>
<stop offset="1" stop-color="#FF9100"/>
</linearGradient>
<linearGradient id="paint1_linear_35798_19261" x1="4.41895" y1="5.65443" x2="15.0981" y2="5.65443" gradientUnits="userSpaceOnUse">
<stop stop-color="#FF6D00"/>
<stop offset="0.5" stop-color="#FF8500"/>
<stop offset="1" stop-color="#FF9100"/>
</linearGradient>
</defs>
</svg>
