<svg width="20" height="20" viewBox="0 0 20 20" fill="none" xmlns="http://www.w3.org/2000/svg">
<path d="M14.158 8.0918H5.84131C5.49964 8.0918 5.21631 7.80846 5.21631 7.4668C5.21631 7.12513 5.49964 6.8418 5.84131 6.8418H14.158C14.4996 6.8418 14.783 7.12513 14.783 7.4668C14.783 7.80846 14.4996 8.0918 14.158 8.0918Z" fill="black"/>
<path d="M10 8.0914C9.65833 8.0914 9.375 7.80807 9.375 7.4664V6.06641C9.375 5.72474 9.65833 5.44141 10 5.44141C10.3417 5.44141 10.625 5.72474 10.625 6.06641V7.4664C10.625 7.80807 10.3417 8.0914 10 8.0914Z" fill="black"/>
<path d="M5.8335 14.5585C5.49183 14.5585 5.2085 14.2752 5.2085 13.9335C5.2085 13.5918 5.49183 13.3085 5.8335 13.3085C8.9335 13.3085 11.4585 10.6835 11.4585 7.4502C11.4585 7.10853 11.7418 6.8252 12.0835 6.8252C12.4252 6.8252 12.7085 7.10853 12.7085 7.4502C12.7085 11.3752 9.62516 14.5585 5.8335 14.5585Z" fill="black"/>
<path d="M14.1669 14.5585C12.5252 14.5585 11.0002 13.7419 9.88352 12.2502C9.67519 11.9752 9.73354 11.5836 10.0085 11.3752C10.2835 11.1669 10.6752 11.2252 10.8835 11.5002C11.7669 12.6669 12.9335 13.3085 14.1752 13.3085C14.5169 13.3085 14.8002 13.5919 14.8002 13.9335C14.8002 14.2752 14.5085 14.5585 14.1669 14.5585Z" fill="black"/>
<path d="M9.99984 18.9587C5.05817 18.9587 1.0415 14.942 1.0415 10.0003C1.0415 5.05866 5.05817 1.04199 9.99984 1.04199C14.9415 1.04199 18.9582 5.05866 18.9582 10.0003C18.9582 14.942 14.9415 18.9587 9.99984 18.9587ZM9.99984 2.29199C5.74984 2.29199 2.2915 5.75033 2.2915 10.0003C2.2915 14.2503 5.74984 17.7087 9.99984 17.7087C14.2498 17.7087 17.7082 14.2503 17.7082 10.0003C17.7082 5.75033 14.2498 2.29199 9.99984 2.29199Z" fill="black"/>
</svg>
