<svg width="18" height="18" viewBox="0 0 16 16" fill="currentColor" xmlns="http://www.w3.org/2000/svg">
<path fill-rule="evenodd" clip-rule="evenodd" d="M1.10517 5.2344H3.9402V15.1148H1.10517V5.2344ZM2.45042 3.99852H2.42989C1.40364 3.99852 0.738281 3.24322 0.738281 2.28675C0.738281 1.31072 1.42331 0.570312 2.47009 0.570312C3.51601 0.570312 4.15913 1.30885 4.17966 2.28395C4.17966 3.24042 3.51601 3.99852 2.45042 3.99852ZM15.2837 15.1158H12.069V10.0019C12.069 8.66354 11.5661 7.75084 10.4603 7.75084C9.61453 7.75084 9.14417 8.36645 8.92523 8.96156C8.84313 9.17391 8.85596 9.471 8.85596 9.76902V15.1158H5.67115C5.67115 15.1158 5.7122 6.05769 5.67115 5.2344H8.85596V6.78505C9.04411 6.10705 10.0618 5.1394 11.6859 5.1394C13.7007 5.1394 15.2837 6.56153 15.2837 9.62094V15.1158Z" fill="currentColor"/>
</svg>
