<svg width="16" height="17" viewBox="0 0 16 17" fill="none" xmlns="http://www.w3.org/2000/svg">
<path d="M12 7.83382C11.7267 7.83382 11.5 7.60715 11.5 7.33382V6.00049C11.5 3.90049 10.9067 2.50049 8 2.50049C5.09333 2.50049 4.5 3.90049 4.5 6.00049V7.33382C4.5 7.60715 4.27333 7.83382 4 7.83382C3.72667 7.83382 3.5 7.60715 3.5 7.33382V6.00049C3.5 4.06715 3.96667 1.50049 8 1.50049C12.0333 1.50049 12.5 4.06715 12.5 6.00049V7.33382C12.5 7.60715 12.2733 7.83382 12 7.83382Z" fill="#756D7D"/>
<path d="M11.3333 15.8335H4.66665C1.72665 15.8335 0.833313 14.9402 0.833313 12.0002V10.6668C0.833313 7.72683 1.72665 6.8335 4.66665 6.8335H11.3333C14.2733 6.8335 15.1666 7.72683 15.1666 10.6668V12.0002C15.1666 14.9402 14.2733 15.8335 11.3333 15.8335ZM4.66665 7.8335C2.27998 7.8335 1.83331 8.28683 1.83331 10.6668V12.0002C1.83331 14.3802 2.27998 14.8335 4.66665 14.8335H11.3333C13.72 14.8335 14.1666 14.3802 14.1666 12.0002V10.6668C14.1666 8.28683 13.72 7.8335 11.3333 7.8335H4.66665Z" fill="#756D7D"/>
<path d="M5.33335 12.0006C5.24669 12.0006 5.16002 11.9806 5.08002 11.9472C4.99335 11.9139 4.92669 11.8672 4.86003 11.8072C4.74003 11.6806 4.66669 11.5139 4.66669 11.3339C4.66669 11.2472 4.68668 11.1606 4.72001 11.0806C4.75334 10.9939 4.80003 10.9272 4.86003 10.8606C4.92669 10.8006 4.99335 10.7539 5.08002 10.7206C5.32002 10.6139 5.62001 10.6739 5.80668 10.8606C5.86668 10.9272 5.91336 11.0006 5.9467 11.0806C5.98003 11.1606 6.00002 11.2472 6.00002 11.3339C6.00002 11.5072 5.92668 11.6806 5.80668 11.8072C5.68001 11.9272 5.50669 12.0006 5.33335 12.0006Z" fill="#45445F"/>
<path d="M7.99998 12.0004C7.82665 12.0004 7.65332 11.9271 7.52665 11.8071C7.40665 11.6804 7.33331 11.5138 7.33331 11.3338C7.33331 11.2471 7.34664 11.1604 7.38664 11.0804C7.41997 11.0004 7.46665 10.9271 7.52665 10.8604C7.67999 10.7071 7.91331 10.6338 8.12665 10.6804C8.17331 10.6871 8.21332 10.7004 8.25332 10.7204C8.29332 10.7338 8.33331 10.7538 8.37331 10.7804C8.40664 10.8004 8.43997 10.8338 8.47331 10.8604C8.53331 10.9271 8.57999 11.0004 8.61332 11.0804C8.64666 11.1604 8.66665 11.2471 8.66665 11.3338C8.66665 11.5138 8.59331 11.6804 8.47331 11.8071C8.43997 11.8338 8.40664 11.8604 8.37331 11.8871C8.33331 11.9138 8.29332 11.9338 8.25332 11.9471C8.21332 11.9671 8.17331 11.9804 8.12665 11.9871C8.08665 11.9938 8.03998 12.0004 7.99998 12.0004Z" fill="#45445F"/>
<path d="M10.6667 12.0004C10.4867 12.0004 10.32 11.9271 10.1933 11.8071C10.1333 11.7404 10.0867 11.6671 10.0533 11.5871C10.02 11.5071 10 11.4204 10 11.3338C10 11.1604 10.0733 10.9871 10.1933 10.8604C10.2267 10.8338 10.26 10.8071 10.2933 10.7804C10.3333 10.7538 10.3733 10.7338 10.4133 10.7204C10.4533 10.7004 10.4933 10.6871 10.5333 10.6804C10.7533 10.6338 10.98 10.7071 11.14 10.8604C11.26 10.9871 11.3333 11.1538 11.3333 11.3338C11.3333 11.4204 11.3133 11.5071 11.28 11.5871C11.2467 11.6738 11.2 11.7404 11.14 11.8071C11.0133 11.9271 10.84 12.0004 10.6667 12.0004Z" fill="#45445F"/>
</svg>
