<svg width="20" height="20" viewBox="0 0 20 20" fill="none" xmlns="http://www.w3.org/2000/svg">
<path d="M12.7001 18.5581H12.5918C8.89176 18.5581 7.10843 17.0997 6.80009 13.8331C6.76676 13.4914 7.01676 13.1831 7.36676 13.1497C7.70009 13.1164 8.01676 13.3747 8.05009 13.7164C8.29176 16.3331 9.52509 17.3081 12.6001 17.3081H12.7084C16.1001 17.3081 17.3001 16.1081 17.3001 12.7164V7.28307C17.3001 3.89141 16.1001 2.69141 12.7084 2.69141H12.6001C9.50843 2.69141 8.27509 3.68307 8.05009 6.34974C8.00843 6.69141 7.71676 6.94974 7.36676 6.91641C7.01676 6.89141 6.76676 6.58307 6.79176 6.24141C7.07509 2.92474 8.86676 1.44141 12.5918 1.44141H12.7001C16.7918 1.44141 18.5418 3.19141 18.5418 7.28307V12.7164C18.5418 16.8081 16.7918 18.5581 12.7001 18.5581Z" fill="black"/>
<path d="M12.4999 10.625H3.0166C2.67493 10.625 2.3916 10.3417 2.3916 10C2.3916 9.65833 2.67493 9.375 3.0166 9.375H12.4999C12.8416 9.375 13.1249 9.65833 13.1249 10C13.1249 10.3417 12.8416 10.625 12.4999 10.625Z" fill="black"/>
<path d="M4.87503 13.4162C4.7167 13.4162 4.55837 13.3579 4.43337 13.2329L1.6417 10.4412C1.40003 10.1995 1.40003 9.79954 1.6417 9.55788L4.43337 6.76621C4.67503 6.52454 5.07503 6.52454 5.3167 6.76621C5.55837 7.00788 5.55837 7.40788 5.3167 7.64954L2.9667 9.99954L5.3167 12.3495C5.55837 12.5912 5.55837 12.9912 5.3167 13.2329C5.20003 13.3579 5.03337 13.4162 4.87503 13.4162Z" fill="#34383D"/>
</svg>
