<svg width="28" height="28" viewBox="0 0 28 28" fill="none" xmlns="http://www.w3.org/2000/svg">
<path d="M0 14C0 6.26801 6.26801 0 14 0C21.732 0 28 6.26801 28 14C28 21.732 21.732 28 14 28C6.26801 28 0 21.732 0 14Z" fill="url(#paint0_linear_35416_14500)"/>
<path d="M12.8334 20.8333C9.70675 20.8333 7.16675 18.2933 7.16675 15.1667C7.16675 12.04 9.70675 9.5 12.8334 9.5C15.9601 9.5 18.5001 12.04 18.5001 15.1667C18.5001 18.2933 15.9601 20.8333 12.8334 20.8333ZM12.8334 10.5C10.2601 10.5 8.16675 12.5933 8.16675 15.1667C8.16675 17.74 10.2601 19.8333 12.8334 19.8333C15.4067 19.8333 17.5001 17.74 17.5001 15.1667C17.5001 12.5933 15.4067 10.5 12.8334 10.5Z" fill="white"/>
<path d="M16.6665 11.833C16.5399 11.833 16.4132 11.7863 16.3132 11.6863C16.1199 11.493 16.1199 11.173 16.3132 10.9796L19.9799 7.31297C20.1732 7.11964 20.4932 7.11964 20.6865 7.31297C20.8799 7.5063 20.8799 7.8263 20.6865 8.01964L17.0199 11.6863C16.9199 11.7863 16.7932 11.833 16.6665 11.833Z" fill="white"/>
<path d="M20.3333 12.4993C20.06 12.4993 19.8333 12.2727 19.8333 11.9993V8.16602H16C15.7267 8.16602 15.5 7.93935 15.5 7.66602C15.5 7.39268 15.7267 7.16602 16 7.16602H20.3333C20.6067 7.16602 20.8333 7.39268 20.8333 7.66602V11.9993C20.8333 12.2727 20.6067 12.4993 20.3333 12.4993Z" fill="white"/>
<defs>
<linearGradient id="paint0_linear_35416_14500" x1="0" y1="14" x2="29.2174" y2="14" gradientUnits="userSpaceOnUse">
<stop stop-color="#FF6D00"/>
<stop offset="0.5" stop-color="#FF8500"/>
<stop offset="1" stop-color="#FF9100"/>
</linearGradient>
</defs>
</svg>
