<svg width="64" height="64" viewBox="0 0 64 64" fill="none" xmlns="http://www.w3.org/2000/svg">
<path d="M0 32C0 14.3269 14.3269 0 32 0C49.6731 0 64 14.3269 64 32C64 49.6731 49.6731 64 32 64C14.3269 64 0 49.6731 0 32Z" fill="#E5F6FD"/>
<path d="M42.6667 24.9993C44.6917 24.9993 46.3333 23.3577 46.3333 21.3327C46.3333 19.3076 44.6917 17.666 42.6667 17.666C40.6416 17.666 39 19.3076 39 21.3327C39 23.3577 40.6416 24.9993 42.6667 24.9993Z" fill="#F74360"/>
<path d="M41.387 26.866C39.2937 26.4127 37.587 24.706 37.1337 22.6127C36.9603 21.7993 36.947 21.0127 37.0937 20.266C37.267 19.4393 36.6537 18.666 35.8003 18.666H25.3337C21.6537 18.666 18.667 21.6527 18.667 25.3327V34.5993C18.667 38.2793 21.6537 41.266 25.3337 41.266H27.3337C27.707 41.266 28.187 41.506 28.4003 41.7994L30.4003 44.4527C31.2803 45.626 32.7203 45.626 33.6003 44.4527L35.6003 41.7994C35.8537 41.466 36.2403 41.266 36.667 41.266H38.6803C42.3603 41.266 45.3337 38.2927 45.3337 34.6127V28.1993C45.3337 27.3593 44.5603 26.746 43.7337 26.906C42.987 27.0393 42.2003 27.0393 41.387 26.866ZM26.667 31.9993C25.9203 31.9993 25.3337 31.3993 25.3337 30.666C25.3337 29.9327 25.9203 29.3327 26.667 29.3327C27.4003 29.3327 28.0003 29.9327 28.0003 30.666C28.0003 31.3993 27.4137 31.9993 26.667 31.9993ZM32.0003 31.9993C31.2537 31.9993 30.667 31.3993 30.667 30.666C30.667 29.9327 31.2537 29.3327 32.0003 29.3327C32.7337 29.3327 33.3337 29.9327 33.3337 30.666C33.3337 31.3993 32.747 31.9993 32.0003 31.9993ZM37.3337 31.9993C36.587 31.9993 36.0003 31.3993 36.0003 30.666C36.0003 29.9327 36.587 29.3327 37.3337 29.3327C38.067 29.3327 38.667 29.9327 38.667 30.666C38.667 31.3993 38.0803 31.9993 37.3337 31.9993Z" fill="#00ADEE"/>
</svg>
