<svg width="56" height="56" viewBox="0 0 56 56" fill="none" xmlns="http://www.w3.org/2000/svg">
<rect width="56" height="56" rx="8" fill="#51158A"/>
<path d="M24.9101 36.6695C24.7201 36.6695 24.5301 36.5995 24.3801 36.4495C24.0901 36.1595 24.0901 35.6795 24.3801 35.3895L30.9001 28.8695C31.3801 28.3895 31.3801 27.6095 30.9001 27.1295L24.3801 20.6095C24.0901 20.3195 24.0901 19.8395 24.3801 19.5495C24.6701 19.2595 25.1501 19.2595 25.4401 19.5495L31.9601 26.0695C32.4701 26.5795 32.7601 27.2695 32.7601 27.9995C32.7601 28.7295 32.4801 29.4195 31.9601 29.9295L25.4401 36.4495C25.2901 36.5895 25.1001 36.6695 24.9101 36.6695Z" fill="white"/>
</svg>
