<svg width="0" height="0" viewBox="0 0 19 22" fill="none" xmlns="http://www.w3.org/2000/svg">
<mask id="mask0_1694_30579" style="mask-type:alpha" maskUnits="userSpaceOnUse" x="0" y="0" width="19" height="18">
<path fill-rule="evenodd" clip-rule="evenodd" d="M0 0H18.4969V17.348H0V0Z" fill="white"/>
</mask>
<g mask="url(#mask0_1694_30579)">
<path fill-rule="evenodd" clip-rule="evenodd" d="M9.24701 1.5C5.75201 1.5 3.31601 4.238 3.31601 6.695C3.31601 8.774 2.73901 9.735 2.22901 10.583C1.82001 11.264 1.49701 11.802 1.49701 12.971C1.66401 14.857 2.90901 15.848 9.24701 15.848C15.55 15.848 16.834 14.813 17 12.906C16.997 11.802 16.674 11.264 16.265 10.583C15.755 9.735 15.178 8.774 15.178 6.695C15.178 4.238 12.742 1.5 9.24701 1.5ZM9.24701 17.348C4.57101 17.348 0.345013 17.018 1.33547e-05 13.035C-0.00298665 11.387 0.500013 10.549 0.944013 9.811C1.39301 9.063 1.81601 8.358 1.81601 6.695C1.81601 3.462 4.80201 0 9.24701 0C13.692 0 16.678 3.462 16.678 6.695C16.678 8.358 17.101 9.063 17.55 9.811C17.994 10.549 18.497 11.387 18.497 12.971C18.148 17.018 13.923 17.348 9.24701 17.348Z" fill="#051C3F"/>
</g>
<path fill-rule="evenodd" clip-rule="evenodd" d="M9.19705 21.4986H9.19505C8.07405 21.4976 7.01305 21.0036 6.20805 20.1066C5.93105 19.7996 5.95605 19.3246 6.26405 19.0486C6.57205 18.7706 7.04605 18.7956 7.32305 19.1046C7.84105 19.6816 8.50605 19.9986 9.19605 19.9986H9.19705C9.89005 19.9986 10.5581 19.6816 11.0771 19.1036C11.3551 18.7966 11.8291 18.7716 12.1361 19.0486C12.4441 19.3256 12.4691 19.8006 12.1921 20.1076C11.3841 21.0046 10.3211 21.4986 9.19705 21.4986Z" fill="#051C3F"/>
</svg>
