<svg width="64" height="64" viewBox="0 0 64 64" fill="none" xmlns="http://www.w3.org/2000/svg">
<path d="M0 32C0 14.3269 14.3269 0 32 0C49.6731 0 64 14.3269 64 32C64 49.6731 49.6731 64 32 64C14.3269 64 0 49.6731 0 32Z" fill="#F7F8FD"/>
<path d="M42.9199 34.7458L41.4133 32.2391C41.0799 31.6924 40.7866 30.6391 40.7866 29.9991V27.5058C40.7866 22.6658 36.8533 18.7324 32.0266 18.7324C27.1866 18.7458 23.2533 22.6658 23.2533 27.5058V29.9858C23.2533 30.6258 22.9599 31.6791 22.6399 32.2258L21.1333 34.7324C20.5599 35.7058 20.4266 36.8124 20.7866 37.7724C21.1466 38.7458 21.9599 39.5191 23.0266 39.8658C24.4666 40.3458 25.9199 40.6924 27.3999 40.9458C27.5466 40.9724 27.6933 40.9858 27.8399 41.0124C28.0266 41.0391 28.2266 41.0658 28.4266 41.0924C28.7733 41.1458 29.1199 41.1858 29.4799 41.2124C30.3199 41.2924 31.1733 41.3324 32.0266 41.3324C32.8666 41.3324 33.7066 41.2924 34.5333 41.2124C34.8399 41.1858 35.1466 41.1591 35.4399 41.1191C35.6799 41.0924 35.9199 41.0658 36.1599 41.0258C36.3066 41.0124 36.4533 40.9858 36.5999 40.9591C38.0933 40.7191 39.5733 40.3458 41.0133 39.8658C42.0399 39.5191 42.8266 38.7458 43.1999 37.7591C43.5733 36.7591 43.4666 35.6658 42.9199 34.7458ZM32.9999 29.3324C32.9999 29.8924 32.5466 30.3458 31.9866 30.3458C31.4266 30.3458 30.9733 29.8924 30.9733 29.3324V25.1991C30.9733 24.6391 31.4266 24.1858 31.9866 24.1858C32.5466 24.1858 32.9999 24.6391 32.9999 25.1991V29.3324Z" fill="#6A2FA4"/>
<path d="M35.7736 42.6793C35.2136 44.226 33.7336 45.3327 32.0002 45.3327C30.9469 45.3327 29.9069 44.906 29.1736 44.146C28.7469 43.746 28.4269 43.2127 28.2402 42.666C28.4136 42.6927 28.5869 42.706 28.7736 42.7327C29.0802 42.7727 29.4002 42.8127 29.7202 42.8393C30.4802 42.906 31.2536 42.946 32.0269 42.946C32.7869 42.946 33.5469 42.906 34.2936 42.8393C34.5736 42.8127 34.8536 42.7993 35.1202 42.7593C35.3336 42.7327 35.5469 42.706 35.7736 42.6793Z" fill="#6A2FA4"/>
</svg>
