<svg width="64" height="64" viewBox="0 0 64 64" fill="none" xmlns="http://www.w3.org/2000/svg">
<rect width="64" height="64" rx="8" fill="#FFEBCC"/>
<path d="M41.2533 20.666H22.7466C22.1999 20.666 21.7466 20.2127 21.7466 19.666C21.7466 19.1193 22.1999 18.666 22.7466 18.666H41.2533C41.7999 18.666 42.2533 19.1193 42.2533 19.666C42.2533 20.2127 41.7999 20.666 41.2533 20.666Z" fill="#FF6D00"/>
<path d="M41.2533 45.334H22.7466C22.1999 45.334 21.7466 44.8807 21.7466 44.334C21.7466 43.7873 22.1999 43.334 22.7466 43.334H41.2533C41.7999 43.334 42.2533 43.7873 42.2533 44.334C42.2533 44.8807 41.7999 45.334 41.2533 45.334Z" fill="#FF6D00"/>
<path d="M19.6665 26.666V37.3327C19.6665 39.546 21.4532 41.3327 23.6665 41.3327H40.3332C42.5465 41.3327 44.3332 39.546 44.3332 37.3327V26.666C44.3332 24.4527 42.5465 22.666 40.3332 22.666H23.6665C21.4532 22.666 19.6665 24.4527 19.6665 26.666Z" fill="#FF6D00"/>
</svg>
