<svg width="16" height="16" viewBox="0 0 16 16" fill="none" xmlns="http://www.w3.org/2000/svg">
<path d="M11.6935 5.87342C12.7834 5.87342 13.6669 4.98993 13.6669 3.90009C13.6669 2.81025 12.7834 1.92676 11.6935 1.92676C10.6037 1.92676 9.72021 2.81025 9.72021 3.90009C9.72021 4.98993 10.6037 5.87342 11.6935 5.87342Z" fill="#1A0D27"/>
<path d="M4.30683 5.87342C5.39667 5.87342 6.28016 4.98993 6.28016 3.90009C6.28016 2.81025 5.39667 1.92676 4.30683 1.92676C3.21699 1.92676 2.3335 2.81025 2.3335 3.90009C2.3335 4.98993 3.21699 5.87342 4.30683 5.87342Z" fill="#1A0D27"/>
<path d="M11.6935 14.0736C12.7834 14.0736 13.6669 13.1901 13.6669 12.1003C13.6669 11.0104 12.7834 10.127 11.6935 10.127C10.6037 10.127 9.72021 11.0104 9.72021 12.1003C9.72021 13.1901 10.6037 14.0736 11.6935 14.0736Z" fill="#1A0D27"/>
<path d="M4.30683 14.0736C5.39667 14.0736 6.28016 13.1901 6.28016 12.1003C6.28016 11.0104 5.39667 10.127 4.30683 10.127C3.21699 10.127 2.3335 11.0104 2.3335 12.1003C2.3335 13.1901 3.21699 14.0736 4.30683 14.0736Z" fill="#1A0D27"/>
</svg>
