<svg width="32" height="32" viewBox="0 0 32 32" fill="none" xmlns="http://www.w3.org/2000/svg">
<path d="M15.9998 2.66699C8.65317 2.66699 2.6665 8.65366 2.6665 16.0003C2.6665 23.347 8.65317 29.3337 15.9998 29.3337C23.3465 29.3337 29.3332 23.347 29.3332 16.0003C29.3332 8.65366 23.3465 2.66699 15.9998 2.66699ZM21.3332 17.0003H16.9998V21.3337C16.9998 21.8803 16.5465 22.3337 15.9998 22.3337C15.4532 22.3337 14.9998 21.8803 14.9998 21.3337V17.0003H10.6665C10.1198 17.0003 9.6665 16.547 9.6665 16.0003C9.6665 15.4537 10.1198 15.0003 10.6665 15.0003H14.9998V10.667C14.9998 10.1203 15.4532 9.66699 15.9998 9.66699C16.5465 9.66699 16.9998 10.1203 16.9998 10.667V15.0003H21.3332C21.8798 15.0003 22.3332 15.4537 22.3332 16.0003C22.3332 16.547 21.8798 17.0003 21.3332 17.0003Z" fill="#F58220"/>
</svg>
