<svg width="0" height="0" viewBox="0 0 20 20" fill="currentColor" xmlns="http://www.w3.org/2000/svg">
<path d="M19.0832 9.99935C19.0832 9.58514 18.7474 9.24935 18.3332 9.24935C17.919 9.24935 17.5832 9.58514 17.5832 9.99935H19.0832ZM2.5915 13.6994V12.9494C2.17729 12.9494 1.8415 13.2851 1.8415 13.6994H2.5915ZM0.916504 9.99935C0.916504 10.4136 1.25229 10.7493 1.6665 10.7493C2.08072 10.7493 2.4165 10.4136 2.4165 9.99935H0.916504ZM18.3332 6.29935V7.04935C18.7474 7.04935 19.0832 6.71356 19.0832 6.29935H18.3332ZM19.0832 2.13268C19.0832 1.71847 18.7474 1.38268 18.3332 1.38268C17.919 1.38268 17.5832 1.71847 17.5832 2.13268H19.0832ZM14.6332 5.54935C14.219 5.54935 13.8832 5.88514 13.8832 6.29935C13.8832 6.71356 14.219 7.04935 14.6332 7.04935V5.54935ZM6.35817 14.4494C6.77238 14.4494 7.10817 14.1136 7.10817 13.6994C7.10817 13.2851 6.77238 12.9494 6.35817 12.9494V14.4494ZM1.8415 17.866C1.8415 18.2802 2.17729 18.616 2.5915 18.616C3.00572 18.616 3.3415 18.2802 3.3415 17.866H1.8415ZM17.5832 9.99935C17.5832 14.1851 14.1856 17.5827 9.99984 17.5827V19.0827C15.0141 19.0827 19.0832 15.0136 19.0832 9.99935H17.5832ZM9.99984 17.5827C7.9603 17.5827 6.28077 16.5546 5.07454 15.4605C4.47623 14.9178 4.01101 14.3734 3.69597 13.9651C3.53888 13.7615 3.42027 13.5933 3.34221 13.478C3.30321 13.4204 3.27442 13.3761 3.2561 13.3474C3.24694 13.3331 3.2404 13.3227 3.23652 13.3165C3.23458 13.3133 3.2333 13.3113 3.2327 13.3103C3.23239 13.3098 3.23226 13.3096 3.23229 13.3096C3.2323 13.3096 3.23236 13.3097 3.23246 13.3099C3.23251 13.31 3.23262 13.3102 3.23264 13.3102C3.23276 13.3104 3.23289 13.3106 2.5915 13.6994C1.95012 14.0881 1.95027 14.0883 1.95043 14.0886C1.9505 14.0887 1.95067 14.089 1.9508 14.0892C1.95107 14.0897 1.95139 14.0902 1.95175 14.0908C1.95246 14.0919 1.95335 14.0934 1.95442 14.0951C1.95654 14.0986 1.95937 14.1032 1.96288 14.1088C1.96991 14.1201 1.9797 14.1357 1.99224 14.1553C2.01729 14.1945 2.05333 14.2498 2.10011 14.3189C2.1936 14.457 2.33033 14.6507 2.50839 14.8815C2.86366 15.3419 3.38803 15.9559 4.0668 16.5715C5.41474 17.7941 7.43938 19.0827 9.99984 19.0827V17.5827ZM2.4165 9.99935C2.4165 5.81161 5.78267 2.41602 9.99984 2.41602V0.916016C4.95034 0.916016 0.916504 4.98709 0.916504 9.99935H2.4165ZM9.99984 2.41602C12.5563 2.41602 14.4755 3.47835 15.7704 4.5586C16.4184 5.09911 16.9043 5.63992 17.2268 6.0435C17.3876 6.24489 17.5068 6.41091 17.5842 6.52394C17.6229 6.58042 17.651 6.62355 17.6686 6.65112C17.6774 6.66489 17.6836 6.67477 17.6871 6.68046C17.6889 6.68331 17.69 6.68511 17.6904 6.68583C17.6906 6.68619 17.6907 6.68628 17.6906 6.6861C17.6905 6.686 17.6904 6.68584 17.6903 6.68561C17.6902 6.6855 17.6901 6.68527 17.69 6.68521C17.6899 6.68497 17.6897 6.68471 18.3332 6.29935C18.9766 5.91399 18.9764 5.91369 18.9762 5.91338C18.9762 5.91325 18.976 5.91292 18.9758 5.91266C18.9755 5.91215 18.9751 5.91157 18.9747 5.91091C18.974 5.90961 18.973 5.90802 18.9719 5.90615C18.9696 5.90241 18.9666 5.89757 18.963 5.89165C18.9556 5.87981 18.9455 5.86367 18.9327 5.84351C18.9069 5.80321 18.87 5.74679 18.8219 5.67658C18.7259 5.53623 18.5848 5.34026 18.3987 5.10728C18.0271 4.64211 17.4719 4.02459 16.7313 3.40676C15.2492 2.17035 13.0017 0.916016 9.99984 0.916016V2.41602ZM19.0832 6.29935V2.13268H17.5832V6.29935H19.0832ZM18.3332 5.54935H14.6332V7.04935H18.3332V5.54935ZM2.5915 14.4494H6.35817V12.9494H2.5915V14.4494ZM1.8415 13.6994V17.866H3.3415V13.6994H1.8415Z" fill="currentColor"/>
</svg>
