<svg width="24" height="24" viewBox="0 0 24 24" fill="none" xmlns="http://www.w3.org/2000/svg">
<path d="M8.90998 20.6695C8.71998 20.6695 8.52998 20.5995 8.37998 20.4495C8.08998 20.1595 8.08998 19.6795 8.37998 19.3895L14.9 12.8695C15.38 12.3895 15.38 11.6095 14.9 11.1295L8.37998 4.60953C8.08998 4.31953 8.08998 3.83953 8.37998 3.54953C8.66998 3.25953 9.14998 3.25953 9.43998 3.54953L15.96 10.0695C16.47 10.5795 16.76 11.2695 16.76 11.9995C16.76 12.7295 16.48 13.4195 15.96 13.9295L9.43998 20.4495C9.28998 20.5895 9.09998 20.6695 8.90998 20.6695Z" fill="#51158A"/>
</svg>
