<svg width="16" height="16" viewBox="0 0 16 16" fill="none" xmlns="http://www.w3.org/2000/svg">
<path d="M7.66683 14.4997C3.90016 14.4997 0.833496 11.433 0.833496 7.66634C0.833496 3.89967 3.90016 0.833008 7.66683 0.833008C11.4335 0.833008 14.5002 3.89967 14.5002 7.66634C14.5002 11.433 11.4335 14.4997 7.66683 14.4997ZM7.66683 1.83301C4.44683 1.83301 1.8335 4.45301 1.8335 7.66634C1.8335 10.8797 4.44683 13.4997 7.66683 13.4997C10.8868 13.4997 13.5002 10.8797 13.5002 7.66634C13.5002 4.45301 10.8868 1.83301 7.66683 1.83301Z" fill="#756D7D"/>
<path d="M14.6666 15.1666C14.54 15.1666 14.4133 15.12 14.3133 15.02L12.98 13.6866C12.7866 13.4933 12.7866 13.1733 12.98 12.98C13.1733 12.7866 13.4933 12.7866 13.6866 12.98L15.02 14.3133C15.2133 14.5066 15.2133 14.8266 15.02 15.02C14.92 15.12 14.7933 15.1666 14.6666 15.1666Z" fill="#756D7D"/>
</svg>
