<svg width="0" height="0" viewBox="0 0 12 12" fill="currentColor" xmlns="http://www.w3.org/2000/svg">
<path d="M10.0468 3.67245L4.34018 0.819113C0.506843 -1.10089 -1.06649 0.472446 0.853509 4.30578L1.43351 5.46578C1.60018 5.80578 1.60018 6.19911 1.43351 6.53911L0.853509 7.69245C-1.06649 11.5258 0.500176 13.0991 4.34018 11.1791L10.0468 8.32578C12.6068 7.04578 12.6068 4.95245 10.0468 3.67245ZM7.89351 6.49911H4.29351C4.02018 6.49911 3.79351 6.27245 3.79351 5.99911C3.79351 5.72578 4.02018 5.49911 4.29351 5.49911H7.89351C8.16684 5.49911 8.39351 5.72578 8.39351 5.99911C8.39351 6.27245 8.16684 6.49911 7.89351 6.49911Z" fill="currentColor"/>
</svg>
