<svg width="24" height="24" viewBox="0 0 24 24" fill="none" xmlns="http://www.w3.org/2000/svg">
<path d="M19.24 5.57957H18.84L15.46 2.19957C15.19 1.92957 14.75 1.92957 14.47 2.19957C14.2 2.46957 14.2 2.90957 14.47 3.18957L16.86 5.57957H7.14L9.53 3.18957C9.8 2.91957 9.8 2.47957 9.53 2.19957C9.26 1.92957 8.82 1.92957 8.54 2.19957L5.17 5.57957H4.77C3.87 5.57957 2 5.57957 2 8.13957C2 9.10957 2.2 9.74957 2.62 10.1696C2.86 10.4196 3.15 10.5496 3.46 10.6196C3.75 10.6896 4.06 10.6996 4.36 10.6996H19.64C19.95 10.6996 20.24 10.6796 20.52 10.6196C21.36 10.4196 22 9.81957 22 8.13957C22 5.57957 20.13 5.57957 19.24 5.57957Z" fill="#5A189A"/>
<path d="M19.0497 12H4.86967C4.24967 12 3.77967 12.55 3.87967 13.16L4.71967 18.3C4.99967 20.02 5.74967 22 9.07967 22H14.6897C18.0597 22 18.6597 20.31 19.0197 18.42L20.0297 13.19C20.1497 12.57 19.6797 12 19.0497 12ZM10.6097 18.45C10.6097 18.84 10.2997 19.15 9.91967 19.15C9.52967 19.15 9.21967 18.84 9.21967 18.45V15.15C9.21967 14.77 9.52967 14.45 9.91967 14.45C10.2997 14.45 10.6097 14.77 10.6097 15.15V18.45ZM14.8897 18.45C14.8897 18.84 14.5797 19.15 14.1897 19.15C13.8097 19.15 13.4897 18.84 13.4897 18.45V15.15C13.4897 14.77 13.8097 14.45 14.1897 14.45C14.5797 14.45 14.8897 14.77 14.8897 15.15V18.45Z" fill="#5A189A"/>
</svg>
