<svg width="129" height="34" viewBox="0 0 129 34" fill="none" xmlns="http://www.w3.org/2000/svg">
<path d="M40.9782 20.2824C40.4382 20.2824 39.9214 20.206 39.4287 20.0532C38.9361 19.9003 38.4836 19.6721 38.0724 19.3664C37.6611 19.0618 37.3032 18.6887 36.9985 18.2484C36.6929 17.808 36.4526 17.2952 36.2766 16.708L38.5128 15.8272C38.6767 16.4616 38.9642 16.9865 39.3755 17.4028C39.7867 17.82 40.3266 18.0282 40.9953 18.0282C41.2416 18.0282 41.4799 17.996 41.7081 17.9316C41.9374 17.8673 42.1425 17.7728 42.3245 17.6501C42.5065 17.5264 42.6503 17.3716 42.7558 17.1836C42.8614 16.9955 42.9147 16.7784 42.9147 16.532C42.9147 16.2978 42.8735 16.0856 42.791 15.8976C42.7086 15.7096 42.5708 15.5336 42.3768 15.3697C42.1827 15.2058 41.9303 15.047 41.6197 14.8941C41.309 14.7413 40.9239 14.5834 40.4664 14.4185L39.6912 14.137C39.3503 14.0204 39.0075 13.8615 38.6606 13.6614C38.3137 13.4623 38 13.221 37.7184 12.9395C37.4369 12.658 37.2047 12.3262 37.0227 11.9451C36.8407 11.564 36.7502 11.1327 36.7502 10.6511C36.7502 10.1584 36.8467 9.69788 37.0408 9.26854C37.2348 8.84021 37.5103 8.46417 37.8683 8.14142C38.2262 7.81866 38.6545 7.56629 39.1532 7.3843C39.652 7.20231 40.207 7.11182 40.8173 7.11182C41.4517 7.11182 41.9997 7.19728 42.4642 7.36721C42.9278 7.53713 43.3209 7.75431 43.6437 8.01875C43.9664 8.28319 44.2278 8.57376 44.4269 8.89049C44.626 9.20721 44.7728 9.50684 44.8673 9.78837L42.7719 10.6692C42.6543 10.3172 42.4401 9.99952 42.1294 9.71798C41.8187 9.43645 41.3924 9.29569 40.8525 9.29569C40.3357 9.29569 39.9073 9.41634 39.5675 9.65665C39.2266 9.89696 39.0567 10.2117 39.0567 10.5988C39.0567 10.9748 39.2206 11.2946 39.5494 11.558C39.8782 11.8224 40.4 12.0778 41.1169 12.3242L41.9092 12.5886C42.414 12.7645 42.8745 12.9676 43.2917 13.1959C43.708 13.4251 44.067 13.6976 44.3656 14.0143C44.6652 14.3311 44.8934 14.692 45.0523 15.0972C45.2112 15.5024 45.2896 15.969 45.2896 16.4968C45.2896 17.1544 45.1579 17.7205 44.8935 18.1961C44.629 18.6717 44.2922 19.0618 43.8809 19.3674C43.4697 19.6731 43.0062 19.9013 42.4904 20.0542C41.9756 20.206 41.4719 20.2824 40.9782 20.2824Z" fill="white"/>
<path d="M49.0078 7.39404H51.3495L55.2055 14.0673H55.3463L59.2022 7.39404H61.5621V20.0016H59.2022V13.7858L59.343 11.6723H59.2022L55.9978 17.325H54.5721L51.3495 11.6723H51.2088L51.3495 13.7858V20.0016H49.0078V7.39404Z" fill="white"/>
<path d="M69.5395 7.39404H72.2512L76.9879 20.0016H74.3647L73.326 16.9902H68.4656L67.427 20.0016H64.8037L69.5395 7.39404ZM72.5508 14.8073L71.4237 11.6552L70.9662 10.1229H70.8254L70.367 11.6552L69.2398 14.8073H72.5508Z" fill="white"/>
<path d="M80.2275 7.39404H84.8235C85.457 7.39404 86.0321 7.49358 86.5489 7.69367C87.0657 7.89376 87.5081 8.16926 87.8781 8.52117C88.2481 8.87308 88.5327 9.29337 88.7318 9.78001C88.9309 10.2677 89.0314 10.7985 89.0314 11.3737C89.0314 11.796 88.961 12.1921 88.8203 12.5621C88.6795 12.9321 88.4854 13.267 88.2391 13.5656C87.9928 13.8652 87.7052 14.1287 87.3764 14.3579C87.0476 14.5871 86.7017 14.7661 86.3378 14.8948L86.3197 15.0185L89.701 19.8608V20.0016H86.9712L83.7135 15.2648H82.6045V20.0016H80.2275V7.39404ZM84.8064 13.082C85.3464 13.082 85.7898 12.9181 86.1357 12.5893C86.4815 12.2605 86.6555 11.8442 86.6555 11.3395C86.6555 11.1163 86.6173 10.8991 86.5409 10.6879C86.4644 10.4768 86.3498 10.2888 86.197 10.1249C86.0442 9.961 85.8541 9.82828 85.6249 9.72873C85.3956 9.62919 85.1342 9.57892 84.8416 9.57892H82.6055V13.083H84.8064V13.082Z" fill="white"/>
<path d="M95.5829 20.0016V9.6483H92.0608V7.39404H101.482V9.6483H97.9599V20.0026H95.5829V20.0016Z" fill="white"/>
<path d="M110.374 20.2829C109.435 20.2829 108.564 20.113 107.759 19.7722C106.955 19.4313 106.259 18.9648 105.673 18.3725C105.086 17.7803 104.625 17.0815 104.29 16.2772C103.955 15.4728 103.789 14.6131 103.789 13.6971C103.789 12.7811 103.955 11.9215 104.29 11.1171C104.625 10.3127 105.086 9.61494 105.673 9.02171C106.26 8.42949 106.955 7.96195 107.759 7.6221C108.564 7.28125 109.434 7.11133 110.374 7.11133C111.313 7.11133 112.185 7.28125 112.99 7.6221C113.794 7.96296 114.489 8.42949 115.076 9.02171C115.663 9.61494 116.124 10.3127 116.458 11.1171C116.793 11.9215 116.96 12.7811 116.96 13.6971C116.96 14.6131 116.793 15.4728 116.458 16.2772C116.124 17.0815 115.663 17.7803 115.076 18.3725C114.489 18.9658 113.793 19.4323 112.99 19.7722C112.184 20.113 111.313 20.2829 110.374 20.2829ZM110.374 18.0297C110.962 18.0297 111.511 17.9241 112.021 17.713C112.532 17.5018 112.978 17.2082 113.36 16.8322C113.741 16.4561 114.04 16.0017 114.257 15.4678C114.475 14.9339 114.583 14.3436 114.583 13.6981C114.583 13.0526 114.475 12.4624 114.257 11.9285C114.04 11.3946 113.741 10.9401 113.36 10.5641C112.978 10.1891 112.532 9.89546 112.021 9.68331C111.511 9.47216 110.962 9.36659 110.374 9.36659C109.787 9.36659 109.238 9.47216 108.728 9.68331C108.218 9.89446 107.771 10.1881 107.39 10.5641C107.009 10.9401 106.709 11.3946 106.492 11.9285C106.275 12.4624 106.167 13.0526 106.167 13.6981C106.167 14.3436 106.275 14.9339 106.492 15.4678C106.709 16.0017 107.009 16.4571 107.39 16.8322C107.771 17.2082 108.218 17.5008 108.728 17.713C109.238 17.9241 109.787 18.0297 110.374 18.0297Z" fill="white"/>
<path d="M124.496 20.2824C123.956 20.2824 123.439 20.206 122.947 20.0532C122.454 19.9003 122.002 19.6721 121.59 19.3664C121.179 19.0618 120.821 18.6887 120.517 18.2484C120.211 17.808 119.971 17.2952 119.795 16.708L122.031 15.8272C122.195 16.4616 122.482 16.9865 122.894 17.4028C123.305 17.82 123.845 18.0282 124.513 18.0282C124.76 18.0282 124.998 17.996 125.226 17.9316C125.455 17.8673 125.661 17.7728 125.843 17.6501C126.025 17.5264 126.168 17.3716 126.274 17.1836C126.379 16.9955 126.433 16.7784 126.433 16.532C126.433 16.2978 126.392 16.0856 126.309 15.8976C126.227 15.7096 126.089 15.5336 125.895 15.3697C125.701 15.2058 125.448 15.047 125.138 14.8941C124.827 14.7413 124.442 14.5834 123.984 14.4185L123.209 14.137C122.868 14.0204 122.526 13.8615 122.179 13.6614C121.832 13.4623 121.518 13.221 121.237 12.9395C120.955 12.658 120.723 12.3262 120.541 11.9451C120.359 11.564 120.268 11.1327 120.268 10.6511C120.268 10.1584 120.365 9.69788 120.559 9.26854C120.753 8.84021 121.028 8.46417 121.386 8.14142C121.744 7.81866 122.173 7.56629 122.671 7.3843C123.17 7.20231 123.725 7.11182 124.335 7.11182C124.97 7.11182 125.518 7.19728 125.982 7.36721C126.446 7.53713 126.839 7.75431 127.162 8.01875C127.484 8.28319 127.746 8.57376 127.945 8.89049C128.144 9.20721 128.291 9.50684 128.385 9.78837L126.29 10.6692C126.172 10.3172 125.958 9.99952 125.648 9.71798C125.337 9.43645 124.91 9.29569 124.371 9.29569C123.854 9.29569 123.425 9.41634 123.086 9.65665C122.745 9.89696 122.575 10.2117 122.575 10.5988C122.575 10.9748 122.739 11.2946 123.067 11.558C123.396 11.8224 123.918 12.0778 124.635 12.3242L125.427 12.5886C125.932 12.7645 126.393 12.9676 126.81 13.1959C127.226 13.4251 127.585 13.6976 127.884 14.0143C128.183 14.3311 128.412 14.692 128.57 15.0972C128.729 15.5024 128.808 15.969 128.808 16.4968C128.808 17.1544 128.676 17.7205 128.412 18.1961C128.147 18.6717 127.81 19.0618 127.399 19.3674C126.988 19.6731 126.524 19.9013 126.008 20.0542C125.494 20.206 124.989 20.2824 124.496 20.2824Z" fill="white"/>
<path d="M38.4494 26.0118C38.4494 26.2903 38.3479 26.5145 38.1438 26.6835C37.9366 26.8494 37.6853 26.9318 37.3897 26.9318C37.1262 26.9318 36.894 26.8554 36.6939 26.7016C36.4928 26.5477 36.354 26.3376 36.2766 26.0721L36.6667 25.9123C36.6929 26.0068 36.7301 26.0922 36.7773 26.1697C36.8246 26.2471 36.8799 26.3124 36.9432 26.3667C37.0066 26.421 37.077 26.4643 37.1544 26.4954C37.2308 26.5266 37.3122 26.5417 37.3987 26.5417C37.5847 26.5417 37.7376 26.4934 37.8552 26.3979C37.9738 26.3024 38.0322 26.1737 38.0322 26.0138C38.0322 25.8811 37.9829 25.7675 37.8854 25.672C37.7939 25.5805 37.6219 25.492 37.3706 25.4055C37.1162 25.314 36.9583 25.2517 36.896 25.2195C36.5591 25.0486 36.3902 24.7952 36.3902 24.4614C36.3902 24.2281 36.4837 24.028 36.6697 23.8621C36.8588 23.6962 37.091 23.6138 37.3655 23.6138C37.6078 23.6138 37.818 23.6761 37.9949 23.7998C38.1719 23.9214 38.2906 24.0733 38.3499 24.2563L37.9688 24.4161C37.9336 24.2975 37.8632 24.199 37.7577 24.1215C37.6531 24.0431 37.5244 24.0039 37.3736 24.0039C37.2137 24.0039 37.079 24.0481 36.9704 24.1366C36.8608 24.2191 36.8065 24.3266 36.8065 24.4584C36.8065 24.567 36.8497 24.6615 36.9352 24.7409C37.0297 24.8203 37.2348 24.9148 37.5515 25.0234C37.8733 25.133 38.1035 25.2678 38.2413 25.4256C38.381 25.5865 38.4494 25.7816 38.4494 26.0118Z" fill="white"/>
<path d="M40.7691 26.8608H40.3608V23.6855H40.7691L41.8731 25.6191H41.8912L42.9952 23.6855H43.4034V26.8608H42.9952V24.9756L43.0133 24.4437H42.9952L42.0018 26.1861H41.7625L40.7691 24.4437H40.751L40.7691 24.9756V26.8608Z" fill="white"/>
<path d="M45.6475 26.8608H45.1951L46.3926 23.6855H46.8541L48.0516 26.8608H47.5991L47.2935 26.0001H45.9582L45.6475 26.8608ZM46.6138 24.1863L46.095 25.6191H47.1507L46.6319 24.1863H46.6138Z" fill="white"/>
<path d="M50.2505 26.8608H49.8423V23.6855H50.9242C51.1987 23.6855 51.4329 23.776 51.627 23.958C51.821 24.14 51.9176 24.3642 51.9176 24.6297C51.9176 24.8489 51.8462 25.0429 51.7024 25.2128C51.5586 25.3828 51.3776 25.4914 51.1594 25.5386L51.1504 25.5517L52.0422 26.8427V26.8608H51.5586L50.703 25.5748H50.2505V26.8608ZM50.2505 24.0757V25.1937H50.9071C51.073 25.1937 51.2127 25.1395 51.3284 25.0319C51.444 24.9243 51.5013 24.7906 51.5013 24.6307C51.5013 24.4829 51.447 24.3532 51.3394 24.2426C51.2318 24.132 51.0961 24.0767 50.9332 24.0767H50.2505V24.0757Z" fill="white"/>
<path d="M54.9069 24.0757V26.8608H54.4986V24.0757H53.6118V23.6855H55.7937V24.0757H54.9069Z" fill="white"/>
<path d="M59.4928 23.6861V24.0762H58.0469V25.0827H59.351V25.4637H58.0469V26.4702H59.4928V26.8603H57.6387V23.6851H59.4928V23.6861Z" fill="white"/>
<path d="M61.8696 26.8608H61.4614V23.6855H62.5433C62.8178 23.6855 63.0521 23.776 63.2461 23.958C63.4402 24.14 63.5367 24.3642 63.5367 24.6297C63.5367 24.8489 63.4653 25.0429 63.3215 25.2128C63.1778 25.3828 62.9968 25.4914 62.7786 25.5386L62.7695 25.5517L63.6614 26.8427V26.8608H63.1778L62.3221 25.5748H61.8696V26.8608ZM61.8696 24.0757V25.1937H62.5262C62.6921 25.1937 62.8319 25.1395 62.9475 25.0319C63.0631 24.9243 63.1204 24.7906 63.1204 24.6307C63.1204 24.4829 63.0662 24.3532 62.9586 24.2426C62.851 24.132 62.7152 24.0767 62.5524 24.0767H61.8696V24.0757Z" fill="white"/>
<path d="M70.8595 25.2737C70.8595 25.7443 70.7026 26.1374 70.3889 26.4532C70.0722 26.7729 69.6851 26.9317 69.2266 26.9317C68.7651 26.9317 68.378 26.7719 68.0643 26.4532C67.7506 26.1364 67.5938 25.7433 67.5938 25.2737C67.5938 24.8042 67.7506 24.41 68.0643 24.0943C68.378 23.7746 68.7651 23.6157 69.2266 23.6157C69.6881 23.6157 70.0752 23.7766 70.3889 24.0994C70.7026 24.4151 70.8595 24.8062 70.8595 25.2737ZM68.012 25.2737C68.012 25.6407 68.1277 25.9434 68.3579 26.1827C68.5912 26.422 68.8807 26.5416 69.2266 26.5416C69.5725 26.5416 69.8611 26.422 70.0913 26.1827C70.3246 25.9464 70.4412 25.6427 70.4412 25.2737C70.4412 24.9047 70.3246 24.6011 70.0913 24.3648C69.8611 24.1255 69.5725 24.0058 69.2266 24.0058C68.8807 24.0058 68.5912 24.1255 68.3579 24.3648C68.1277 24.6041 68.012 24.9067 68.012 25.2737Z" fill="white"/>
<path d="M73.1702 25.5748V26.8608H72.762V23.6855H73.8438C74.1183 23.6855 74.3526 23.777 74.5447 23.96C74.7397 24.143 74.8372 24.3662 74.8372 24.6297C74.8372 24.8981 74.7397 25.1234 74.5447 25.3033C74.3556 25.4833 74.1213 25.5738 73.8438 25.5738H73.1702V25.5748ZM73.1702 24.0757V25.1847H73.8529C74.0158 25.1847 74.1505 25.1304 74.2561 25.0208C74.3657 24.9112 74.42 24.7815 74.42 24.6307C74.42 24.4829 74.3657 24.3542 74.2561 24.2446C74.1495 24.132 74.0148 24.0757 73.8529 24.0757H73.1702Z" fill="white"/>
<path d="M78.5362 23.6861V24.0762H77.0903V25.0827H78.3944V25.4637H77.0903V26.4702H78.5362V26.8603H76.6821V23.6851H78.5362V23.6861Z" fill="white"/>
<path d="M80.9131 26.8608H80.5049V23.6855H81.5868C81.8613 23.6855 82.0955 23.776 82.2896 23.958C82.4836 24.14 82.5802 24.3642 82.5802 24.6297C82.5802 24.8489 82.5088 25.0429 82.365 25.2128C82.2212 25.3828 82.0402 25.4914 81.8221 25.5386L81.813 25.5517L82.7048 26.8427V26.8608H82.2212L81.3656 25.5748H80.9131V26.8608ZM80.9131 24.0757V25.1937H81.5697C81.7356 25.1937 81.8753 25.1395 81.991 25.0319C82.1066 24.9243 82.1639 24.7906 82.1639 24.6307C82.1639 24.4829 82.1096 24.3532 82.002 24.2426C81.8944 24.132 81.7587 24.0767 81.5958 24.0767H80.9131V24.0757Z" fill="white"/>
<path d="M84.6737 26.8608H84.2212L85.4187 23.6855H85.8802L87.0777 26.8608H86.6253L86.3196 26.0001H84.9843L84.6737 26.8608ZM85.6399 24.1863L85.1211 25.6191H86.1768L85.658 24.1863H85.6399Z" fill="white"/>
<path d="M89.6627 24.0757V26.8608H89.2545V24.0757H88.3677V23.6855H90.5495V24.0757H89.6627Z" fill="white"/>
<path d="M92.8028 26.8608H92.3945V23.6855H92.8028V26.8608Z" fill="white"/>
<path d="M95.2683 26.8608H94.8601V23.6855H95.3568L96.9002 26.156H96.9183L96.9002 25.5436V23.6855H97.3084V26.8608H96.8831L95.2683 24.2707H95.2502L95.2683 24.8831V26.8608Z" fill="white"/>
<path d="M102.378 25.4019C102.378 25.8453 102.246 26.1993 101.983 26.4617C101.687 26.7754 101.298 26.9322 100.816 26.9322C100.355 26.9322 99.9648 26.7724 99.6461 26.4536C99.3263 26.1339 99.1675 25.7408 99.1675 25.2742C99.1675 24.8077 99.3274 24.4135 99.6461 24.0948C99.9658 23.7751 100.356 23.6162 100.816 23.6162C101.05 23.6162 101.27 23.6574 101.477 23.7399C101.684 23.8223 101.854 23.94 101.987 24.0908L101.694 24.3834C101.597 24.2647 101.47 24.1722 101.315 24.1059C101.16 24.0395 100.993 24.0063 100.816 24.0063C100.471 24.0063 100.178 24.126 99.9387 24.3653C99.7024 24.6076 99.5837 24.9112 99.5837 25.2742C99.5837 25.6372 99.7024 25.9408 99.9387 26.1832C100.178 26.4225 100.471 26.5421 100.816 26.5421C101.133 26.5421 101.396 26.4536 101.606 26.2757C101.816 26.0987 101.937 25.8544 101.97 25.5437H100.816V25.1626H102.356C102.37 25.2451 102.378 25.3245 102.378 25.4019Z" fill="white"/>
<path d="M108.515 26.0118C108.515 26.2903 108.414 26.5145 108.21 26.6835C108.003 26.8494 107.751 26.9318 107.456 26.9318C107.192 26.9318 106.96 26.8554 106.759 26.7016C106.558 26.5477 106.419 26.3376 106.342 26.0721L106.732 25.9123C106.758 26.0068 106.795 26.0922 106.842 26.1697C106.89 26.2471 106.945 26.3124 107.008 26.3667C107.072 26.421 107.142 26.4643 107.219 26.4954C107.296 26.5266 107.377 26.5417 107.464 26.5417C107.65 26.5417 107.802 26.4934 107.92 26.3979C108.039 26.3024 108.097 26.1737 108.097 26.0138C108.097 25.8811 108.048 25.7675 107.95 25.672C107.859 25.5805 107.687 25.492 107.436 25.4055C107.181 25.314 107.023 25.2517 106.961 25.2195C106.624 25.0486 106.455 24.7952 106.455 24.4614C106.455 24.2281 106.549 24.028 106.735 23.8621C106.924 23.6962 107.156 23.6138 107.43 23.6138C107.673 23.6138 107.883 23.6761 108.06 23.7998C108.237 23.9214 108.356 24.0733 108.415 24.2563L108.034 24.4161C107.999 24.2975 107.928 24.199 107.823 24.1215C107.718 24.0431 107.589 24.0039 107.439 24.0039C107.279 24.0039 107.144 24.0481 107.035 24.1366C106.926 24.2191 106.871 24.3266 106.871 24.4584C106.871 24.567 106.915 24.6615 107 24.7409C107.095 24.8203 107.3 24.9148 107.616 25.0234C107.938 25.133 108.168 25.2678 108.306 25.4256C108.444 25.5835 108.515 25.7816 108.515 26.0118Z" fill="white"/>
<path d="M111.505 25.3838V26.8608H111.096V25.3838L110.028 23.6855H110.506L111.291 24.9766H111.31L112.077 23.6855H112.555L111.505 25.3838Z" fill="white"/>
<path d="M116.24 26.0118C116.24 26.2903 116.139 26.5145 115.935 26.6835C115.728 26.8494 115.476 26.9318 115.181 26.9318C114.917 26.9318 114.685 26.8554 114.485 26.7016C114.284 26.5477 114.145 26.3376 114.068 26.0721L114.458 25.9123C114.484 26.0068 114.521 26.0922 114.568 26.1697C114.616 26.2471 114.671 26.3124 114.734 26.3667C114.798 26.421 114.868 26.4643 114.945 26.4954C115.022 26.5266 115.103 26.5417 115.19 26.5417C115.376 26.5417 115.529 26.4934 115.646 26.3979C115.765 26.3024 115.823 26.1737 115.823 26.0138C115.823 25.8811 115.774 25.7675 115.676 25.672C115.585 25.5805 115.413 25.492 115.162 25.4055C114.907 25.314 114.749 25.2517 114.687 25.2195C114.35 25.0486 114.181 24.7952 114.181 24.4614C114.181 24.2281 114.275 24.028 114.461 23.8621C114.65 23.6962 114.882 23.6138 115.157 23.6138C115.399 23.6138 115.609 23.6761 115.786 23.7998C115.963 23.9214 116.082 24.0733 116.141 24.2563L115.76 24.4161C115.725 24.2975 115.654 24.199 115.549 24.1215C115.444 24.0431 115.315 24.0039 115.165 24.0039C115.005 24.0039 114.87 24.0481 114.761 24.1366C114.652 24.2191 114.598 24.3266 114.598 24.4584C114.598 24.567 114.641 24.6615 114.726 24.7409C114.821 24.8203 115.026 24.9148 115.343 25.0234C115.664 25.133 115.895 25.2678 116.032 25.4256C116.172 25.5865 116.24 25.7816 116.24 26.0118Z" fill="white"/>
<path d="M119.19 24.0757V26.8608H118.782V24.0757H117.895V23.6855H120.077V24.0757H119.19Z" fill="white"/>
<path d="M123.775 23.6861V24.0762H122.329V25.0827H123.633V25.4637H122.329V26.4702H123.775V26.8603H121.921V23.6851H123.775V23.6861Z" fill="white"/>
<path d="M126.152 26.8608H125.744V23.6855H126.152L127.256 25.6191H127.274L128.378 23.6855H128.786V26.8608H128.378V24.9756L128.396 24.4437H128.378L127.385 26.1861H127.146L126.152 24.4437H126.134L126.152 24.9756V26.8608Z" fill="white"/>
<path d="M13.9662 6.47438L18.0383 0.418457H9.89404L13.9652 6.47438H13.9662Z" fill="white"/>
<path d="M0.808594 13.939C0.820659 13.9661 0.835742 13.9913 0.852834 14.0154L4.83247 19.9336C4.84554 19.9537 4.85861 19.9708 4.8747 19.9889L8.94482 13.938H0.808594V13.939Z" fill="white"/>
<path d="M9.4183 13.2346H9.4193L13.4914 7.17969H5.34717L9.4183 13.2346Z" fill="white"/>
<path d="M22.5528 7.22694C22.5548 7.22192 22.5578 7.2179 22.5598 7.21488C22.5669 7.20281 22.5729 7.19075 22.5779 7.17969H14.4407L18.5138 13.2346C19.0507 12.4363 22.4653 7.35565 22.5025 7.30034L22.5528 7.22694Z" fill="white"/>
<path d="M9.89307 33.5818H18.0373L13.9652 27.5259L9.89307 33.5818Z" fill="white"/>
<path d="M27.1226 20.0601C27.1105 20.033 27.0954 20.0079 27.0783 19.9837L23.0997 14.0656C23.0856 14.0464 23.0715 14.0284 23.0565 14.0103L18.9863 20.0611H27.1226V20.0601Z" fill="white"/>
<path d="M18.5118 20.7661H18.5108L14.4397 26.82H22.584L18.5118 20.7661Z" fill="white"/>
<path d="M5.42868 26.7004L5.37841 26.7738C5.3764 26.7778 5.37338 26.7818 5.37137 26.7849C5.36433 26.7969 5.3583 26.808 5.35428 26.82L5.35327 26.8211H13.4905V26.82H13.4895L9.41837 20.7651C8.88145 21.5645 5.46588 26.6451 5.42868 26.7004Z" fill="white"/>
<path d="M9.42259 0.623535C9.40651 0.641634 9.39143 0.660735 9.37735 0.680844L5.34644 6.67443H13.4907L9.42259 0.623535Z" fill="white"/>
<path d="M22.5779 6.6744C22.5679 6.65429 22.5568 6.63418 22.5447 6.61608L22.5216 6.5819L18.553 0.679814C18.54 0.66071 18.5259 0.641605 18.5098 0.624512L14.4407 6.67541H22.5779V6.6744Z" fill="white"/>
<path d="M9.4183 14.1392L5.34717 20.1951H13.4904L9.4183 14.1392Z" fill="white"/>
<path d="M4.87271 7.37939L0.844819 13.3679C0.830742 13.3891 0.818677 13.4112 0.807617 13.4343H8.94384L4.87271 7.37939Z" fill="white"/>
<path d="M14.4397 27.3272L18.5098 33.3771C18.5259 33.359 18.54 33.3399 18.5541 33.3198L22.585 27.3262H14.4397V27.3272Z" fill="white"/>
<path d="M13.4905 27.3262H5.35327C5.35327 27.3262 5.35327 27.3272 5.35428 27.3272C5.36333 27.3473 5.37439 27.3664 5.38645 27.3845L5.40958 27.4197L9.37815 33.3208C9.39122 33.3399 9.4063 33.359 9.42139 33.3771L13.4905 27.3262Z" fill="white"/>
<path d="M18.5118 19.8601L22.5849 13.8052H22.5839H14.4407L18.5118 19.8601Z" fill="white"/>
<path d="M18.9854 20.5654L23.0575 26.6203L27.0854 20.6318C27.0995 20.6107 27.1125 20.5886 27.1236 20.5654H18.9854Z" fill="white"/>
</svg>
