<svg width="16" height="16" viewBox="0 0 16 16" fill="none" xmlns="http://www.w3.org/2000/svg">
<path d="M11.3333 14.1668H4.66659C2.23325 14.1668 0.833252 12.7668 0.833252 10.3335V5.66683C0.833252 3.2335 2.23325 1.8335 4.66659 1.8335H11.3333C13.7666 1.8335 15.1666 3.2335 15.1666 5.66683V10.3335C15.1666 12.7668 13.7666 14.1668 11.3333 14.1668ZM4.66659 2.8335C2.75992 2.8335 1.83325 3.76016 1.83325 5.66683V10.3335C1.83325 12.2402 2.75992 13.1668 4.66659 13.1668H11.3333C13.2399 13.1668 14.1666 12.2402 14.1666 10.3335V5.66683C14.1666 3.76016 13.2399 2.8335 11.3333 2.8335H4.66659Z" fill="#756D7D"/>
<path d="M7.99993 8.57998C7.43993 8.57998 6.87327 8.40665 6.43994 8.05331L4.35327 6.38665C4.13993 6.21331 4.09994 5.89998 4.27327 5.68665C4.4466 5.47331 4.75994 5.43332 4.97327 5.60665L7.05993 7.27332C7.5666 7.67998 8.4266 7.67998 8.93326 7.27332L11.0199 5.60665C11.2333 5.43332 11.5533 5.46665 11.7199 5.68665C11.8933 5.89998 11.8599 6.21998 11.6399 6.38665L9.55327 8.05331C9.1266 8.40665 8.55993 8.57998 7.99993 8.57998Z" fill="#756D7D"/>
</svg>
