<svg width="16" height="16" viewBox="0 0 16 16" fill="none" xmlns="http://www.w3.org/2000/svg">
<path d="M14.0004 4.48633C13.9871 4.48633 13.9671 4.48633 13.9471 4.48633C10.4204 4.13299 6.90043 3.99966 3.41377 4.35299L2.05377 4.48633C1.77377 4.51299 1.5271 4.31299 1.50043 4.03299C1.47377 3.75299 1.67377 3.51299 1.9471 3.48633L3.3071 3.35299C6.85377 2.99299 10.4471 3.13299 14.0471 3.48633C14.3204 3.51299 14.5204 3.75966 14.4938 4.03299C14.4738 4.29299 14.2538 4.48633 14.0004 4.48633Z" fill="white"/>
<path d="M5.66651 3.81301C5.63984 3.81301 5.61318 3.81301 5.57984 3.80634C5.31318 3.75967 5.12651 3.49967 5.17318 3.23301L5.31984 2.35967C5.42651 1.71967 5.57318 0.833008 7.12651 0.833008H8.87318C10.4332 0.833008 10.5798 1.75301 10.6798 2.36634L10.8265 3.23301C10.8732 3.50634 10.6865 3.76634 10.4198 3.80634C10.1465 3.85301 9.88651 3.66634 9.84651 3.39967L9.69984 2.53301C9.60651 1.95301 9.58651 1.83967 8.87984 1.83967H7.13318C6.42651 1.83967 6.41318 1.93301 6.31318 2.52634L6.15984 3.39301C6.11984 3.63967 5.90651 3.81301 5.66651 3.81301Z" fill="white"/>
<path d="M10.1396 15.1667H5.85961C3.53294 15.1667 3.43961 13.8801 3.36627 12.8401L2.93294 6.12672C2.91294 5.85338 3.12627 5.61338 3.39961 5.59338C3.67961 5.58005 3.91294 5.78672 3.93294 6.06005L4.36627 12.7734C4.43961 13.7867 4.46627 14.1667 5.85961 14.1667H10.1396C11.5396 14.1667 11.5663 13.7867 11.6329 12.7734L12.0663 6.06005C12.0863 5.78672 12.3263 5.58005 12.5996 5.59338C12.8729 5.61338 13.0863 5.84672 13.0663 6.12672L12.6329 12.8401C12.5596 13.8801 12.4663 15.1667 10.1396 15.1667Z" fill="white"/>
<path d="M9.10672 11.5H6.88672C6.61339 11.5 6.38672 11.2733 6.38672 11C6.38672 10.7267 6.61339 10.5 6.88672 10.5H9.10672C9.38005 10.5 9.60672 10.7267 9.60672 11C9.60672 11.2733 9.38005 11.5 9.10672 11.5Z" fill="white"/>
<path d="M9.66634 8.83301H6.33301C6.05967 8.83301 5.83301 8.60634 5.83301 8.33301C5.83301 8.05967 6.05967 7.83301 6.33301 7.83301H9.66634C9.93967 7.83301 10.1663 8.05967 10.1663 8.33301C10.1663 8.60634 9.93967 8.83301 9.66634 8.83301Z" fill="white"/>
</svg>
