<svg width="14" height="14" viewBox="0 0 14 14" fill="none" xmlns="http://www.w3.org/2000/svg">
<path d="M12.2501 3.92578C12.2385 3.92578 12.221 3.92578 12.2035 3.92578C9.11763 3.61661 6.03763 3.49995 2.9868 3.80911L1.7968 3.92578C1.5518 3.94911 1.33597 3.77411 1.31263 3.52911C1.2893 3.28411 1.4643 3.07411 1.70347 3.05078L2.89347 2.93411C5.9968 2.61911 9.14097 2.74161 12.291 3.05078C12.5301 3.07411 12.7051 3.28995 12.6818 3.52911C12.6643 3.75661 12.4718 3.92578 12.2501 3.92578Z" fill="#45445F"/>
<path d="M4.95844 3.33699C4.93511 3.33699 4.91177 3.33699 4.88261 3.33116C4.64927 3.29033 4.48594 3.06283 4.52677 2.82949L4.65511 2.06533C4.74844 1.50533 4.87677 0.729492 6.23594 0.729492H7.76427C9.12927 0.729492 9.25761 1.53449 9.34511 2.07116L9.47344 2.82949C9.51427 3.06866 9.35094 3.29616 9.11761 3.33116C8.87844 3.37199 8.65094 3.20866 8.61594 2.97533L8.48761 2.21699C8.40594 1.70949 8.38844 1.61033 7.77011 1.61033H6.24177C5.62344 1.61033 5.61177 1.69199 5.52427 2.21116L5.39011 2.96949C5.35511 3.18533 5.16844 3.33699 4.95844 3.33699Z" fill="#45445F"/>
<path d="M8.8724 13.2708H5.1274C3.09157 13.2708 3.0099 12.1449 2.94573 11.2349L2.56657 5.36075C2.54907 5.12159 2.73573 4.91159 2.9749 4.89409C3.2199 4.88242 3.42407 5.06326 3.44157 5.30242L3.82073 11.1766C3.8849 12.0633 3.90823 12.3958 5.1274 12.3958H8.8724C10.0974 12.3958 10.1207 12.0633 10.1791 11.1766L10.5582 5.30242C10.5757 5.06326 10.7857 4.88242 11.0249 4.89409C11.2641 4.91159 11.4507 5.11576 11.4332 5.36075L11.0541 11.2349C10.9899 12.1449 10.9082 13.2708 8.8724 13.2708Z" fill="#45445F"/>
<path d="M7.96789 10.0625H6.02539C5.78622 10.0625 5.58789 9.86417 5.58789 9.625C5.58789 9.38583 5.78622 9.1875 6.02539 9.1875H7.96789C8.20706 9.1875 8.40539 9.38583 8.40539 9.625C8.40539 9.86417 8.20706 10.0625 7.96789 10.0625Z" fill="#45445F"/>
<path d="M8.45866 7.72949H5.54199C5.30283 7.72949 5.10449 7.53116 5.10449 7.29199C5.10449 7.05283 5.30283 6.85449 5.54199 6.85449H8.45866C8.69783 6.85449 8.89616 7.05283 8.89616 7.29199C8.89616 7.53116 8.69783 7.72949 8.45866 7.72949Z" fill="#45445F"/>
</svg>
