<svg width="18" height="18" viewBox="0 0 17 14" fill="currentColor" xmlns="http://www.w3.org/2000/svg">
<path fill-rule="evenodd" clip-rule="evenodd" d="M14.5511 2.54029C15.2173 2.11991 15.7284 1.45333 15.9683 0.659272C15.3446 1.04949 14.6554 1.33169 13.92 1.48447C13.3332 0.822755 12.4945 0.410156 11.5663 0.410156C9.7856 0.410156 8.34257 1.93307 8.34257 3.81118C8.34257 4.07781 8.36932 4.33763 8.42468 4.58577C5.74529 4.4437 3.36945 3.09107 1.77786 1.03197C1.50014 1.53604 1.34145 2.11991 1.34145 2.7427C1.34145 3.92211 1.91073 4.96334 2.77618 5.57445C2.2475 5.55693 1.75018 5.40221 1.31469 5.1492V5.19105C1.31469 6.83949 2.42557 8.2145 3.90274 8.52589C3.63148 8.60569 3.3473 8.64559 3.05205 8.64559C2.84445 8.64559 2.64147 8.62515 2.44587 8.58525C2.85553 9.93593 4.04668 10.9207 5.45834 10.947C4.35392 11.8598 2.96348 12.4028 1.45309 12.4028C1.1929 12.4028 0.935479 12.3882 0.683594 12.3561C2.11094 13.3204 3.80586 13.8838 5.62719 13.8838C11.5599 13.8838 14.8021 8.70105 14.8021 4.20626C14.8021 4.05835 14.8002 3.91141 14.7938 3.76641C15.424 3.28667 15.972 2.68723 16.4029 2.00508C15.8244 2.27561 15.2025 2.45855 14.5511 2.54029Z" fill="currentColor"/>
</svg>
