<svg width="16" height="16" viewBox="0 0 16 16" fill="none" xmlns="http://www.w3.org/2000/svg">
<mask id="mask0_35399_17686" style="mask-type:alpha" maskUnits="userSpaceOnUse" x="1" y="5" width="14" height="11">
<path fill-rule="evenodd" clip-rule="evenodd" d="M1.33362 5.86328H14.6667V15.0259H1.33362V5.86328Z" fill="currentColor"/>
</mask>
<g mask="url(#mask0_35399_17686)">
<path fill-rule="evenodd" clip-rule="evenodd" d="M11.7103 15.0259H4.29028C2.66028 15.0259 1.33362 13.6999 1.33362 12.0693V8.81928C1.33362 7.18928 2.66028 5.86328 4.29028 5.86328H4.91228C5.18828 5.86328 5.41228 6.08728 5.41228 6.36328C5.41228 6.63928 5.18828 6.86328 4.91228 6.86328H4.29028C3.21095 6.86328 2.33362 7.74061 2.33362 8.81928V12.0693C2.33362 13.1486 3.21095 14.0259 4.29028 14.0259H11.7103C12.789 14.0259 13.667 13.1486 13.667 12.0693V8.81328C13.667 7.73795 12.7923 6.86328 11.7176 6.86328H11.089C10.813 6.86328 10.589 6.63928 10.589 6.36328C10.589 6.08728 10.813 5.86328 11.089 5.86328H11.7176C13.3436 5.86328 14.667 7.18661 14.667 8.81328V12.0693C14.667 13.6999 13.3403 15.0259 11.7103 15.0259Z" fill="currentColor"/>
</g>
<mask id="mask1_35399_17686" style="mask-type:alpha" maskUnits="userSpaceOnUse" x="7" y="1" width="2" height="10">
<path fill-rule="evenodd" clip-rule="evenodd" d="M7.5 1.33398H8.5V10.3613H7.5V1.33398Z" fill="currentColor"/>
</mask>
<g mask="url(#mask1_35399_17686)">
<path fill-rule="evenodd" clip-rule="evenodd" d="M8 10.3613C7.724 10.3613 7.5 10.1373 7.5 9.86132V1.83398C7.5 1.55798 7.724 1.33398 8 1.33398C8.276 1.33398 8.5 1.55798 8.5 1.83398V9.86132C8.5 10.1373 8.276 10.3613 8 10.3613Z" fill="currentColor"/>
</g>
<path fill-rule="evenodd" clip-rule="evenodd" d="M6.05672 4.28601C5.92939 4.28601 5.80139 4.23734 5.70405 4.14001C5.50872 3.94534 5.50739 3.62934 5.70272 3.43334L7.64605 1.48134C7.83339 1.29268 8.16672 1.29268 8.35405 1.48134L10.2981 3.43334C10.4927 3.62934 10.4921 3.94534 10.2967 4.14001C10.1007 4.33468 9.78472 4.33468 9.59005 4.13868L8.00005 2.54268L6.41072 4.13868C6.31339 4.23734 6.18472 4.28601 6.05672 4.28601Z" fill="currentColor"/>
</svg>
