<svg width="0" height="0" viewBox="0 0 11 14" fill="currentColor" xmlns="http://www.w3.org/2000/svg">
<path d="M10.0131 7.22065L9.19977 6.40732C9.00644 6.24065 8.89311 5.99398 8.88644 5.72065C8.87311 5.42065 8.99311 5.12065 9.21311 4.90065L10.0131 4.10065C10.7064 3.40732 10.9664 2.74065 10.7464 2.21398C10.5331 1.69398 9.87311 1.40732 8.89977 1.40732H1.93311V0.833984C1.93311 0.560651 1.70644 0.333984 1.43311 0.333984C1.15977 0.333984 0.933105 0.560651 0.933105 0.833984V13.1673C0.933105 13.4407 1.15977 13.6673 1.43311 13.6673C1.70644 13.6673 1.93311 13.4407 1.93311 13.1673V9.91399H8.89977C9.85977 9.91399 10.5064 9.62065 10.7264 9.09398C10.9464 8.56732 10.6931 7.90732 10.0131 7.22065Z" fill="currentColor"/>
</svg>
