<svg width="20" height="20" viewBox="0 0 20 20" fill="none" xmlns="http://www.w3.org/2000/svg">
<path d="M10.0002 10.6253C7.3585 10.6253 5.2085 8.47533 5.2085 5.83366C5.2085 3.19199 7.3585 1.04199 10.0002 1.04199C12.6418 1.04199 14.7918 3.19199 14.7918 5.83366C14.7918 8.47533 12.6418 10.6253 10.0002 10.6253ZM10.0002 2.29199C8.05016 2.29199 6.4585 3.88366 6.4585 5.83366C6.4585 7.78366 8.05016 9.37533 10.0002 9.37533C11.9502 9.37533 13.5418 7.78366 13.5418 5.83366C13.5418 3.88366 11.9502 2.29199 10.0002 2.29199Z" fill="black"/>
<path d="M17.1585 18.9583C16.8168 18.9583 16.5335 18.675 16.5335 18.3333C16.5335 15.4583 13.6001 13.125 10.0001 13.125C6.40013 13.125 3.4668 15.4583 3.4668 18.3333C3.4668 18.675 3.18346 18.9583 2.8418 18.9583C2.50013 18.9583 2.2168 18.675 2.2168 18.3333C2.2168 14.775 5.70846 11.875 10.0001 11.875C14.2918 11.875 17.7835 14.775 17.7835 18.3333C17.7835 18.675 17.5001 18.9583 17.1585 18.9583Z" fill="black"/>
</svg>
