<svg width="24" height="24" viewBox="0 0 24 24" fill="none" xmlns="http://www.w3.org/2000/svg">
<path d="M7.10402 4.74125C8.39602 4.74125 9.4434 3.69387 9.4434 2.40187C9.4434 1.10987 8.39602 0.0625 7.10402 0.0625C5.81202 0.0625 4.76465 1.10987 4.76465 2.40187C4.76465 3.69387 5.81202 4.74125 7.10402 4.74125Z" fill="#51158A"/>
<path d="M12.5599 15.9416C12.4939 15.4254 12.1201 15.0015 11.6162 14.8713L8.89871 14.1698L8.95939 13.3146C8.49582 13.2263 8.1053 12.91 7.92128 12.4791L6.26466 8.58309L8.78956 11.7968C9.00827 12.0752 9.35194 12.2267 9.70709 12.1986L11.8912 12.0248C11.8762 12.0767 11.8678 12.1312 11.8678 12.1879C11.8678 12.5109 12.1296 12.7728 12.4526 12.7728C12.9969 12.7728 17.0671 12.7728 17.7287 12.7728C17.9932 12.7728 18.2248 12.5952 18.2936 12.3398L19.7786 6.81846C19.8625 6.50651 19.6776 6.18564 19.3657 6.10175C19.0537 6.01796 18.7329 6.20265 18.649 6.51465L17.2804 11.603C16.7188 11.603 15.0897 11.603 14.5414 11.603C14.7847 11.3898 14.9284 11.0693 14.9008 10.7222C14.8544 10.1387 14.3445 9.70279 13.7602 9.74964L10.1055 10.0404L7.93161 7.27347L9.31495 8.30557L9.3594 7.67954C9.42118 6.80897 8.76556 6.05307 7.89494 5.9913L5.21262 5.80091C4.29426 5.73575 3.51347 6.46764 3.52047 7.3893L3.57994 15.2125C3.5824 15.5369 3.70167 15.8464 3.91109 16.0874H2.82874L1.68916 7.08893C1.63036 6.62437 1.20624 6.29521 0.741474 6.35427C0.276917 6.41312 -0.0520393 6.8374 0.00681284 7.30196L1.24026 17.0418C1.29394 17.4655 1.65436 17.7832 2.08146 17.7832H5.14349V21.2555L3.12932 22.8997C2.87909 23.104 2.84179 23.4724 3.0461 23.7227C3.25036 23.9729 3.61887 24.0101 3.86904 23.8059L5.14344 22.7655V23.3528C5.14344 23.6758 5.4053 23.9377 5.72831 23.9377C6.05132 23.9377 6.31318 23.6758 6.31318 23.3528V22.7655L7.58758 23.8059C7.6962 23.8945 7.82706 23.9377 7.95713 23.9377C8.12669 23.9377 8.29495 23.8643 8.41057 23.7227C8.61483 23.4724 8.57758 23.104 8.32735 22.8997L6.31318 21.2555V17.7832H9.10532C9.52892 17.7832 9.879 17.4722 9.94208 17.0663L10.1458 17.1188L10.8752 22.8269C10.9642 23.5242 11.6018 24.0163 12.2979 23.9273C12.9947 23.8383 13.4874 23.2012 13.3983 22.5045L12.5599 15.9416Z" fill="#51158A"/>
<path d="M23.1521 13.5322H13.5209C13.0526 13.5322 12.673 13.9118 12.673 14.3802C12.673 14.8485 13.0526 15.2281 13.5209 15.2281H22.3042V22.242H18.3137C17.8454 22.242 17.4657 22.6216 17.4657 23.0899C17.4657 23.5582 17.8453 23.9378 18.3137 23.9378H23.1521C23.6204 23.9378 24 23.5582 24 23.0899V14.3801C24 13.9118 23.6204 13.5322 23.1521 13.5322Z" fill="#FF6D00"/>
</svg>
